<svg width="33" height="32" viewBox="0 0 33 32" fill="none" xmlns="http://www.w3.org/2000/svg">
<mask id="mask0_54_2495" style="mask-type:alpha" maskUnits="userSpaceOnUse" x="0" y="0" width="33" height="32">
<rect x="0.299805" width="32" height="32" fill="#D9D9D9"/>
</mask>
<g mask="url(#mask0_54_2495)">
<path d="M9.27753 19H17.8331V17.6667H9.27753V19ZM9.27753 15H22.722V13.6667H9.27753V15ZM9.27753 11H22.722V9.66667H9.27753V11ZM4.99976 27.7692V7.15383C4.99976 6.54017 5.18818 6.02778 5.56503 5.61667C5.94189 5.20556 6.41158 5 6.9741 5H25.0254C25.5879 5 26.0576 5.20556 26.4345 5.61667C26.8113 6.02778 26.9998 6.54017 26.9998 7.15383V21.5128C26.9998 22.1265 26.8113 22.6389 26.4345 23.05C26.0576 23.4611 25.5879 23.6667 25.0254 23.6667H8.76044L4.99976 27.7692ZM6.22198 24.541L8.2457 22.3333H25.0254C25.2448 22.3333 25.425 22.2564 25.566 22.1026C25.707 21.9487 25.7775 21.7521 25.7775 21.5128V7.15383C25.7775 6.91452 25.707 6.71794 25.566 6.5641C25.425 6.41026 25.2448 6.33333 25.0254 6.33333H6.9741C6.75473 6.33333 6.57454 6.41026 6.43351 6.5641C6.29249 6.71794 6.22198 6.91452 6.22198 7.15383V24.541ZM6.22198 7.15383V6.33333V24.541V7.15383Z" fill="#949494"/>
</g>
</svg>
