<svg width="24" height="24" viewBox="0 0 24 24" fill="none" xmlns="http://www.w3.org/2000/svg">
<mask id="mask0_2227_7337" style="mask-type:alpha" maskUnits="userSpaceOnUse" x="0" y="0" width="24" height="24">
<rect width="24" height="24" transform="matrix(-1 0 0 1 24 0)" fill="#D9D9D9"/>
</mask>
<g mask="url(#mask0_2227_7337)">
<path d="M10.2504 16.95C10.3671 16.8333 10.4254 16.7123 10.4254 16.587C10.4254 16.4623 10.3671 16.3417 10.2504 16.225L6.52539 12.5H18.9004C19.0504 12.5 19.1711 12.45 19.2624 12.35C19.3544 12.25 19.4004 12.1333 19.4004 12C19.4004 11.85 19.3544 11.729 19.2624 11.637C19.1711 11.5457 19.0504 11.5 18.9004 11.5H6.52539L10.2754 7.75C10.3754 7.65 10.4254 7.53733 10.4254 7.412C10.4254 7.28733 10.3671 7.16667 10.2504 7.05C10.1504 6.93333 10.0337 6.875 9.90039 6.875C9.76706 6.875 9.65039 6.93333 9.55039 7.05L5.15039 11.425C5.06706 11.525 5.00872 11.6207 4.97539 11.712C4.94206 11.804 4.92539 11.9 4.92539 12C4.92539 12.1 4.94206 12.1957 4.97539 12.287C5.00872 12.379 5.06706 12.475 5.15039 12.575L9.57539 16.975C9.65872 17.075 9.76706 17.125 9.90039 17.125C10.0337 17.125 10.1504 17.0667 10.2504 16.95Z" fill="black"/>
</g>
</svg>
