<svg width="33" height="32" viewBox="0 0 33 32" fill="none" xmlns="http://www.w3.org/2000/svg">
<mask id="mask0_54_2593" style="mask-type:alpha" maskUnits="userSpaceOnUse" x="0" y="0" width="33" height="32">
<rect x="0.0998535" width="32" height="32" fill="#D9D9D9"/>
</mask>
<g mask="url(#mask0_54_2593)">
<path d="M7.58694 26.6667C6.97327 26.6667 6.46088 26.4611 6.04977 26.05C5.63866 25.6389 5.43311 25.1265 5.43311 24.5129V7.48719C5.43311 6.87352 5.63866 6.36113 6.04977 5.95002C6.46088 5.53891 6.97327 5.33335 7.58694 5.33335H13.8536C13.7545 4.63591 13.9271 4.0171 14.3716 3.47692C14.816 2.93677 15.3921 2.66669 16.0998 2.66669C16.8075 2.66669 17.3835 2.93677 17.828 3.47692C18.2724 4.0171 18.4451 4.63591 18.3459 5.33335H24.6126C25.2263 5.33335 25.7387 5.53891 26.1498 5.95002C26.5609 6.36113 26.7664 6.87352 26.7664 7.48719V24.5129C26.7664 25.1265 26.5609 25.6389 26.1498 26.05C25.7387 26.4611 25.2263 26.6667 24.6126 26.6667H7.58694ZM16.0998 5.92309C16.3887 5.92309 16.6276 5.82864 16.8164 5.63975C17.0053 5.45086 17.0998 5.21198 17.0998 4.92309C17.0998 4.6342 17.0053 4.39531 16.8164 4.20642C16.6276 4.01753 16.3887 3.92309 16.0998 3.92309C15.8109 3.92309 15.572 4.01753 15.3831 4.20642C15.1942 4.39531 15.0998 4.6342 15.0998 4.92309C15.0998 5.21198 15.1942 5.45086 15.3831 5.63975C15.572 5.82864 15.8109 5.92309 16.0998 5.92309ZM6.76644 24.3129C7.96644 23.1351 9.36088 22.2073 10.9498 21.5295C12.5387 20.8517 14.2553 20.5129 16.0998 20.5129C17.9442 20.5129 19.6609 20.8517 21.2498 21.5295C22.8387 22.2073 24.2331 23.1351 25.4331 24.3129V7.48719C25.4331 7.28208 25.3476 7.09404 25.1767 6.92309C25.0058 6.75215 24.8177 6.66669 24.6126 6.66669H7.58694C7.38183 6.66669 7.19379 6.75215 7.02284 6.92309C6.85191 7.09404 6.76644 7.28208 6.76644 7.48719V24.3129ZM16.0998 17.4359C17.2177 17.4359 18.1639 17.0487 18.9382 16.2744C19.7126 15.5 20.0998 14.5539 20.0998 13.4359C20.0998 12.318 19.7126 11.3718 18.9382 10.5975C18.1639 9.8231 17.2177 9.43592 16.0998 9.43592C14.9818 9.43592 14.0357 9.8231 13.2613 10.5975C12.487 11.3718 12.0998 12.318 12.0998 13.4359C12.0998 14.5539 12.487 15.5 13.2613 16.2744C14.0357 17.0487 14.9818 17.4359 16.0998 17.4359ZM7.94594 25.3334H24.2536V25.1026C23.081 24 21.804 23.1817 20.4228 22.6475C19.0416 22.1133 17.6006 21.8462 16.0998 21.8462C14.6331 21.8462 13.2049 22.109 11.8152 22.6347C10.4254 23.1603 9.13567 23.9658 7.94594 25.0513V25.3334ZM16.0998 16.1026C15.3733 16.1026 14.7472 15.8398 14.2216 15.3141C13.6959 14.7885 13.4331 14.1624 13.4331 13.4359C13.4331 12.7094 13.6959 12.0834 14.2216 11.5577C14.7472 11.0321 15.3733 10.7693 16.0998 10.7693C16.8263 10.7693 17.4523 11.0321 17.978 11.5577C18.5036 12.0834 18.7664 12.7094 18.7664 13.4359C18.7664 14.1624 18.5036 14.7885 17.978 15.3141C17.4523 15.8398 16.8263 16.1026 16.0998 16.1026Z" fill="#00A5FD"/>
</g>
</svg>
