<svg width="33" height="32" viewBox="0 0 33 32" fill="none" xmlns="http://www.w3.org/2000/svg">
<mask id="mask0_54_2451" style="mask-type:alpha" maskUnits="userSpaceOnUse" x="0" y="0" width="33" height="32">
<rect x="0.899902" width="32" height="32" fill="#D9D9D9"/>
</mask>
<g mask="url(#mask0_54_2451)">
<path d="M8.89998 25.3333H13.8333V17.5H19.9667V25.3333H24.9V13.3333L16.9 7.26667L8.89998 13.3333V25.3333ZM8.89998 26.6667C8.54443 26.6667 8.23332 26.5333 7.96665 26.2667C7.69998 26 7.56665 25.6889 7.56665 25.3333V13.3333C7.56665 13.1333 7.61109 12.9387 7.69998 12.7493C7.78887 12.5609 7.92221 12.4 8.09998 12.2667L16.1 6.23334C16.2111 6.14445 16.3333 6.07779 16.4667 6.03334C16.6 5.9889 16.7444 5.96667 16.9 5.96667C17.0555 5.96667 17.2 5.9889 17.3333 6.03334C17.4667 6.07779 17.5889 6.14445 17.7 6.23334L25.7 12.2667C25.8778 12.4 26.0111 12.5609 26.1 12.7493C26.1889 12.9387 26.2333 13.1333 26.2333 13.3333V25.3333C26.2333 25.6889 26.1 26 25.8333 26.2667C25.5667 26.5333 25.2555 26.6667 24.9 26.6667H18.6333V18.8333H15.1667V26.6667H8.89998Z" fill="#00A5FD"/>
</g>
</svg>
