<svg width="33" height="32" viewBox="0 0 33 32" fill="none" xmlns="http://www.w3.org/2000/svg">
<mask id="mask0_54_2454" style="mask-type:alpha" maskUnits="userSpaceOnUse" x="0" y="0" width="33" height="32">
<rect x="0.699951" width="32" height="32" fill="#D9D9D9"/>
</mask>
<g mask="url(#mask0_54_2454)">
<path d="M23.864 28.2513L25.8588 26.2308L22.6229 22.9949L20.6024 24.9897C20.1375 25.4547 19.905 25.9983 19.905 26.6205C19.905 27.2427 20.1375 27.7863 20.6024 28.2513C21.0674 28.7162 21.611 28.9487 22.2332 28.9487C22.8554 28.9487 23.399 28.7162 23.864 28.2513ZM26.7768 25.3128L28.7973 23.3179C29.2623 22.853 29.4905 22.3094 29.4819 21.6872C29.4734 21.0649 29.2366 20.5213 28.7717 20.0564C28.3067 19.6085 27.7674 19.3803 27.1537 19.3718C26.54 19.3632 26.0007 19.5914 25.5358 20.0564L23.5409 22.0769L26.7768 25.3128ZM24.7896 29.2026C24.07 29.9222 23.2136 30.2778 22.2204 30.2693C21.2272 30.2607 20.3708 29.9051 19.6511 29.2026C18.9486 28.4829 18.593 27.6265 18.5845 26.6333C18.5759 25.6402 18.9315 24.7838 19.6511 24.0641L24.6101 19.1051C25.3127 18.4025 26.1691 18.0513 27.1794 18.0513C28.1896 18.0513 29.046 18.4025 29.7486 19.1051C30.4682 19.8248 30.8281 20.6812 30.8281 21.6744C30.8281 22.6675 30.4682 23.5239 29.7486 24.2436L24.7896 29.2026ZM8.18704 26.6667C7.59046 26.6667 7.08234 26.4568 6.66267 26.0372C6.24303 25.6175 6.0332 25.1094 6.0332 24.5128V7.48716C6.0332 6.89058 6.24303 6.38246 6.66267 5.96279C7.08234 5.54315 7.59046 5.33332 8.18704 5.33332H14.4537C14.3323 4.65297 14.4952 4.03843 14.9422 3.48972C15.3892 2.94101 15.9751 2.66666 16.6999 2.66666C17.4418 2.66666 18.0362 2.94101 18.4832 3.48972C18.9302 4.03843 19.0845 4.65297 18.946 5.33332H25.2127C25.8093 5.33332 26.3174 5.54315 26.7371 5.96279C27.1567 6.38246 27.3665 6.89058 27.3665 7.48716V14.3974C27.1443 14.3718 26.9221 14.3675 26.6999 14.3846C26.4776 14.4017 26.2554 14.4265 26.0332 14.459V7.48716C26.0332 7.24785 25.9563 7.05127 25.8024 6.89742C25.6486 6.74358 25.452 6.66666 25.2127 6.66666H8.18704C7.94773 6.66666 7.75115 6.74358 7.5973 6.89742C7.44346 7.05127 7.36654 7.24785 7.36654 7.48716V24.5128C7.36654 24.7521 7.44346 24.9487 7.5973 25.1026C7.75115 25.2564 7.94773 25.3333 8.18704 25.3333H15.0306C14.9811 25.5555 14.9477 25.7778 14.9306 26C14.9135 26.2222 14.9178 26.4444 14.9435 26.6667H8.18704ZM16.6999 5.92306C16.9888 5.92306 17.2276 5.82861 17.4165 5.63972C17.6054 5.45083 17.6999 5.21195 17.6999 4.92306C17.6999 4.63417 17.6054 4.39528 17.4165 4.20639C17.2276 4.0175 16.9888 3.92306 16.6999 3.92306C16.411 3.92306 16.1721 4.0175 15.9832 4.20639C15.7943 4.39528 15.6999 4.63417 15.6999 4.92306C15.6999 5.21195 15.7943 5.45083 15.9832 5.63972C16.1721 5.82861 16.411 5.92306 16.6999 5.92306ZM10.6999 11.641V10.3077H22.6999V11.641H10.6999ZM10.6999 16.6667V15.3333H22.6999V15.8769C22.5734 15.9709 22.4567 16.0645 22.3499 16.1577C22.243 16.2508 22.1264 16.3607 21.9999 16.4872L21.8204 16.6667H10.6999ZM10.6999 21.6923V20.359H18.1281L17.7511 20.7359C17.5905 20.8966 17.4336 21.056 17.2806 21.2141C17.1276 21.3722 16.9785 21.5316 16.8332 21.6923H10.6999Z" fill="#949494"/>
</g>
</svg>
