<svg width="24" height="24" viewBox="0 0 24 24" fill="none" xmlns="http://www.w3.org/2000/svg">
<mask id="mask0_1052_6081" style="mask-type:alpha" maskUnits="userSpaceOnUse" x="0" y="0" width="24" height="24">
<rect width="24" height="24" fill="#D9D9D9"/>
</mask>
<g mask="url(#mask0_1052_6081)">
<path d="M10.925 18.6749L9.75 17.6249C7.96667 16.0082 6.39567 14.4372 5.037 12.9119C3.679 11.3872 3 9.7999 3 8.1499C3 6.88324 3.43333 5.81657 4.3 4.9499C5.16667 4.08324 6.23333 3.6499 7.5 3.6499C8.23333 3.6499 8.996 3.83324 9.788 4.1999C10.5793 4.56657 11.3167 5.26657 12 6.2999C12.6833 5.26657 13.421 4.56657 14.213 4.1999C15.0043 3.83324 15.7667 3.6499 16.5 3.6499C17.7667 3.6499 18.8333 4.08324 19.7 4.9499C20.5667 5.81657 21 6.88324 21 8.1499C21 9.83324 20.2917 11.4539 18.875 13.0119C17.4583 14.5706 15.9083 16.1082 14.225 17.6249L13.075 18.6749C12.775 18.9416 12.4167 19.0789 12 19.0869C11.5833 19.0956 11.225 18.9582 10.925 18.6749ZM11.5 7.3249C10.9167 6.35824 10.3 5.67057 9.65 5.2619C9 4.8539 8.28333 4.6499 7.5 4.6499C6.5 4.6499 5.66667 4.98324 5 5.6499C4.33333 6.31657 4 7.1499 4 8.1499C4 8.88323 4.20833 9.63724 4.625 10.4119C5.04167 11.1872 5.604 11.9832 6.312 12.7999C7.02067 13.6166 7.82933 14.4499 8.738 15.2999C9.646 16.1499 10.6 17.0249 11.6 17.9249C11.7167 18.0416 11.85 18.0999 12 18.0999C12.15 18.0999 12.2833 18.0416 12.4 17.9249C13.4 17.0249 14.354 16.1499 15.262 15.2999C16.1707 14.4499 16.9793 13.6166 17.688 12.7999C18.396 11.9832 18.9583 11.1872 19.375 10.4119C19.7917 9.63724 20 8.88323 20 8.1499C20 7.1499 19.6667 6.31657 19 5.6499C18.3333 4.98324 17.5 4.6499 16.5 4.6499C15.7167 4.6499 15 4.8539 14.35 5.2619C13.7 5.67057 13.0833 6.35824 12.5 7.3249C12.4333 7.40824 12.3583 7.4749 12.275 7.5249C12.1917 7.5749 12.1 7.5999 12 7.5999C11.9 7.5999 11.8083 7.5749 11.725 7.5249C11.6417 7.4749 11.5667 7.40824 11.5 7.3249Z" fill="black"/>
</g>
</svg>
