<svg width="24" height="24" viewBox="0 0 24 24" fill="none" xmlns="http://www.w3.org/2000/svg">
<mask id="mask0_1052_6084" style="mask-type:alpha" maskUnits="userSpaceOnUse" x="0" y="0" width="24" height="24">
<rect width="24" height="24" fill="#D9D9D9"/>
</mask>
<g mask="url(#mask0_1052_6084)">
<path d="M12 19.6499L11.2 18.9749C8.76667 16.7249 6.79167 14.7789 5.275 13.1369C3.75833 11.4956 3 9.83324 3 8.1499C3 6.88324 3.43333 5.81657 4.3 4.9499C5.16667 4.08324 6.23333 3.6499 7.5 3.6499C8.23333 3.6499 8.996 3.83324 9.788 4.1999C10.5793 4.56657 11.3167 5.26657 12 6.2999C12.6833 5.26657 13.421 4.56657 14.213 4.1999C15.0043 3.83324 15.7667 3.6499 16.5 3.6499C17.7667 3.6499 18.8333 4.08324 19.7 4.9499C20.5667 5.81657 21 6.88324 21 8.1499C21 9.83324 20.2417 11.4956 18.725 13.1369C17.2083 14.7789 15.2333 16.7249 12.8 18.9749L12 19.6499Z" fill="black"/>
</g>
</svg>
