<svg width="33" height="32" viewBox="0 0 33 32" fill="none" xmlns="http://www.w3.org/2000/svg">
<mask id="mask0_54_2490" style="mask-type:alpha" maskUnits="userSpaceOnUse" x="0" y="0" width="33" height="32">
<rect x="0.5" width="32" height="32" fill="#D9D9D9"/>
</mask>
<g mask="url(#mask0_54_2490)">
<path d="M25.0002 27H8.00016C7.37794 27 6.8615 26.7947 6.45083 26.384C6.03927 25.9724 5.8335 25.4556 5.8335 24.8333V10.5C5.8335 9.87778 6.03927 9.36133 6.45083 8.95067C6.8615 8.53911 7.37794 8.33333 8.00016 8.33333H11.1668C11.1668 6.84444 11.6837 5.58311 12.7175 4.54933C13.7504 3.51644 15.0113 3 16.5002 3C17.9891 3 19.2504 3.51644 20.2842 4.54933C21.3171 5.58311 21.8335 6.84444 21.8335 8.33333H25.0002C25.6224 8.33333 26.1393 8.53911 26.5508 8.95067C26.9615 9.36133 27.1668 9.87778 27.1668 10.5V24.8333C27.1668 25.4556 26.9615 25.9724 26.5508 26.384C26.1393 26.7947 25.6224 27 25.0002 27ZM12.5002 8.33333H20.5002C20.5002 7.22222 20.1113 6.27778 19.3335 5.5C18.5557 4.72222 17.6113 4.33333 16.5002 4.33333C15.3891 4.33333 14.4446 4.72222 13.6668 5.5C12.8891 6.27778 12.5002 7.22222 12.5002 8.33333ZM25.0002 25.6667C25.2446 25.6667 25.4446 25.5889 25.6002 25.4333C25.7557 25.2778 25.8335 25.0778 25.8335 24.8333V10.5C25.8335 10.2556 25.7557 10.0556 25.6002 9.9C25.4446 9.74444 25.2446 9.66667 25.0002 9.66667H8.00016C7.75572 9.66667 7.55572 9.74444 7.40016 9.9C7.24461 10.0556 7.16683 10.2556 7.16683 10.5V24.8333C7.16683 25.0778 7.24461 25.2778 7.40016 25.4333C7.55572 25.5889 7.75572 25.6667 8.00016 25.6667C14.6391 25.6667 18.3612 25.6667 25.0002 25.6667ZM16.5002 16.3333C17.8779 16.3333 19.1002 15.8556 20.1668 14.9C21.2335 13.9444 21.7668 12.8556 21.7668 11.6333C21.7668 11.4556 21.7002 11.3053 21.5668 11.1827C21.4335 11.0609 21.2779 11 21.1002 11C20.9446 11 20.8055 11.0609 20.6828 11.1827C20.5611 11.3053 20.4779 11.4556 20.4335 11.6333C20.2779 12.5889 19.8282 13.3889 19.0842 14.0333C18.3393 14.6778 17.4779 15 16.5002 15C15.5224 15 14.6611 14.6778 13.9162 14.0333C13.1722 13.3889 12.7224 12.5889 12.5668 11.6333C12.5224 11.4556 12.4446 11.3053 12.3335 11.1827C12.2224 11.0609 12.0891 11 11.9335 11C11.7335 11 11.5726 11.0609 11.4508 11.1827C11.3282 11.3053 11.2668 11.4556 11.2668 11.6333C11.2668 12.8556 11.7948 13.9444 12.8508 14.9C13.9059 15.8556 15.1224 16.3333 16.5002 16.3333Z" fill="#949494"/>
</g>
</svg>
