<svg width="25" height="24" viewBox="0 0 25 24" fill="none" xmlns="http://www.w3.org/2000/svg">
<mask id="mask0_1361_12612" style="mask-type:alpha" maskUnits="userSpaceOnUse" x="0" y="0" width="25" height="24">
<rect x="0.5" width="24" height="24" fill="#D9D9D9"/>
</mask>
<g mask="url(#mask0_1361_12612)">
<path d="M10.65 13.5C10.3 13.5 10.0543 13.3334 9.913 13C9.771 12.6667 9.825 12.375 10.075 12.125L11.95 10.25C12.0333 10.1667 12.121 10.1084 12.213 10.075C12.3043 10.0417 12.4083 10.025 12.525 10.025C12.625 10.025 12.7207 10.0417 12.812 10.075C12.904 10.1084 12.9917 10.1667 13.075 10.25L14.95 12.125C15.2 12.375 15.2583 12.6667 15.125 13C14.9917 13.3334 14.7417 13.5 14.375 13.5H10.65Z" fill="#B7B7B7"/>
</g>
</svg>
