<svg width="25" height="24" viewBox="0 0 25 24" fill="none" xmlns="http://www.w3.org/2000/svg">
<mask id="mask0_1361_12551" style="mask-type:alpha" maskUnits="userSpaceOnUse" x="0" y="0" width="25" height="24">
<rect x="0.5" width="24" height="24" fill="#D9D9D9"/>
</mask>
<g mask="url(#mask0_1361_12551)">
<path d="M11.95 13.75L10.075 11.875C9.825 11.625 9.771 11.3333 9.913 11C10.0543 10.6667 10.3 10.5 10.65 10.5H14.375C14.7417 10.5 14.9917 10.6667 15.125 11C15.2583 11.3333 15.2 11.625 14.95 11.875L13.075 13.75C12.9917 13.8333 12.904 13.8917 12.812 13.925C12.7207 13.9583 12.625 13.975 12.525 13.975C12.4083 13.975 12.3043 13.9583 12.213 13.925C12.121 13.8917 12.0333 13.8333 11.95 13.75Z" fill="#B7B7B7"/>
</g>
</svg>
