<svg width="48" height="48" viewBox="0 0 48 48" fill="none" xmlns="http://www.w3.org/2000/svg">
<rect width="48" height="48" rx="24" fill="#FEE500"/>
<g clip-path="url(#clip0_306_20656)">
<path d="M23.9994 14.2171C18.2499 14.2171 13.5879 17.9624 13.5879 22.5852C13.5879 25.5546 15.5188 28.1617 18.4186 29.6498L17.4376 33.3758C17.4 33.4902 17.4312 33.6113 17.5127 33.6938C17.5688 33.7513 17.6436 33.783 17.7249 33.783C17.7876 33.783 17.8499 33.7576 17.9062 33.7131L22.1245 30.8134C22.7372 30.9023 23.3622 30.9531 23.9994 30.9531C29.7488 30.9531 34.4113 27.208 34.4113 22.5852C34.4113 17.9624 29.7488 14.2171 23.9994 14.2171Z" fill="black" fill-opacity="0.85"/>
</g>
<defs>
<clipPath id="clip0_306_20656">
<rect width="21.25" height="20" fill="white" transform="translate(13.375 14)"/>
</clipPath>
</defs>
</svg>
