<svg width="24" height="24" viewBox="0 0 24 24" fill="none" xmlns="http://www.w3.org/2000/svg">
<path d="M19.5 9V17.8C19.5 18.9201 19.5 19.4802 19.2664 19.908C19.061 20.2843 18.7332 20.5903 18.33 20.782C17.8716 21 17.2715 21 16.0714 21H7.92857C6.72846 21 6.1284 21 5.67002 20.782C5.26682 20.5903 4.939 20.2843 4.73356 19.908C4.5 19.4802 4.5 18.9201 4.5 17.8V6.2C4.5 5.07989 4.5 4.51984 4.73356 4.09202C4.939 3.71569 5.26682 3.40973 5.67002 3.21799C6.1284 3 6.72846 3 7.92857 3H13.0714M19.5 9L13.0714 3M19.5 9H16.5C15.2999 9 14.6998 9 14.2414 8.78201C13.8382 8.59027 13.5104 8.28431 13.305 7.90798C13.0714 7.48016 13.0714 6.9201 13.0714 5.8V3M12.001 14H12.0117M7.85031 21C8.32607 19.2748 10.004 18 12.001 18C13.998 18 15.6759 19.2748 16.1517 21M13.0724 14C13.0724 14.5523 12.5927 15 12.001 15C11.4093 15 10.9296 14.5523 10.9296 14C10.9296 13.4477 11.4093 13 12.001 13C12.5927 13 13.0724 13.4477 13.0724 14Z" stroke="#949494" stroke-width="1.5" stroke-linejoin="round"/>
</svg>
