<svg width="24" height="24" viewBox="0 0 24 24" fill="none" xmlns="http://www.w3.org/2000/svg">
<rect width="24" height="24" rx="12" fill="url(#paint0_linear_1421_750)"/>
<path d="M7.33333 12.0001C7.33333 11.1021 6.7768 10.3381 6 10.055V8.975C6 8.58996 6 8.39745 6.07266 8.25038C6.13658 8.12102 6.23856 8.01585 6.36401 7.94993C6.50661 7.875 6.6933 7.875 7.06667 7.875H16.9333C17.3067 7.875 17.4934 7.875 17.636 7.94993C17.7614 8.01585 17.8634 8.12102 17.9273 8.25038C18 8.39745 18 8.58996 18 8.975V10.0549C17.2232 10.338 16.6667 11.1021 16.6667 12.0001C16.6667 12.8982 17.2232 13.662 18 13.9451V15.025C18 15.41 18 15.6026 17.9273 15.7496C17.8634 15.879 17.7614 15.9842 17.636 16.0501C17.4934 16.125 17.3067 16.125 16.9333 16.125H7.06667C6.6933 16.125 6.50661 16.125 6.36401 16.0501C6.23856 15.9842 6.13658 15.879 6.07266 15.7496C6 15.6026 6 15.41 6 15.025V13.9453C6.7768 13.6621 7.33333 12.8982 7.33333 12.0001Z" stroke="white" stroke-width="1.2" stroke-linecap="round" stroke-linejoin="round"/>
<defs>
<linearGradient id="paint0_linear_1421_750" x1="24" y1="24" x2="1.26949e-08" y2="24" gradientUnits="userSpaceOnUse">
<stop offset="0.019003" stop-color="#008FF5"/>
<stop offset="0.487763" stop-color="#00A5FD"/>
<stop offset="1" stop-color="#4AC0FF"/>
</linearGradient>
</defs>
</svg>
