<svg width="16" height="16" viewBox="0 0 16 16" fill="none" xmlns="http://www.w3.org/2000/svg">
<mask id="mask0_1485_1988" style="mask-type:alpha" maskUnits="userSpaceOnUse" x="0" y="0" width="16" height="16">
<rect y="16" width="16" height="16" transform="rotate(-90 0 16)" fill="#D9D9D9"/>
</mask>
<g mask="url(#mask0_1485_1988)">
<path d="M10.6667 7.99992C10.6667 8.10398 10.6486 8.20354 10.6122 8.29858C10.5758 8.39432 10.5031 8.49423 10.394 8.59829L5.62129 13.1511C5.49402 13.2725 5.36202 13.3333 5.22529 13.3333C5.08929 13.3333 4.96675 13.2725 4.85766 13.1511C4.73038 13.0471 4.66675 12.9257 4.66675 12.7869C4.66675 12.6482 4.73038 12.5267 4.85766 12.4227L9.46675 7.99992L4.83038 3.57715C4.72129 3.47309 4.66675 3.35168 4.66675 3.21293C4.66675 3.07417 4.73038 2.95276 4.85766 2.8487C4.96675 2.72729 5.09402 2.66659 5.23947 2.66659C5.38493 2.66659 5.5122 2.72729 5.62129 2.8487L10.394 7.40154C10.5031 7.50561 10.5758 7.60516 10.6122 7.70021C10.6486 7.79595 10.6667 7.89585 10.6667 7.99992Z" fill="#949494"/>
</g>
</svg>
