<svg width="9" height="14" viewBox="0 0 9 14" fill="none" xmlns="http://www.w3.org/2000/svg">
<path d="M8.33349 7C8.33349 7.13009 8.31077 7.25453 8.26531 7.37334C8.21986 7.49301 8.12895 7.61789 7.99259 7.74797L2.02668 13.439C1.86759 13.5908 1.70259 13.6667 1.53168 13.6667C1.36168 13.6667 1.2085 13.5908 1.07213 13.439C0.913042 13.3089 0.833496 13.1572 0.833496 12.9837C0.833496 12.8103 0.913042 12.6585 1.07213 12.5285L6.83349 7L1.03804 1.47155C0.901677 1.34147 0.833496 1.18971 0.833496 1.01626C0.833496 0.842823 0.913041 0.691061 1.07213 0.56098C1.2085 0.409219 1.36759 0.333339 1.5494 0.333339C1.73122 0.333339 1.89031 0.409219 2.02668 0.56098L7.99259 6.25204C8.12895 6.38212 8.21986 6.50656 8.26531 6.62537C8.31077 6.74504 8.33349 6.86992 8.33349 7Z" fill="#949494"/>
</svg>
