<svg width="18" height="17" viewBox="0 0 18 17" fill="none" xmlns="http://www.w3.org/2000/svg">
<path d="M7.925 15.675L6.75 14.625C4.96667 13.0083 3.39567 11.4373 2.037 9.91199C0.679 8.38733 0 6.79999 0 5.14999C0 3.88333 0.433334 2.81666 1.3 1.94999C2.16667 1.08333 3.23333 0.649994 4.5 0.649994C5.23333 0.649994 5.996 0.833327 6.788 1.19999C7.57933 1.56666 8.31667 2.26666 9 3.29999C9.68333 2.26666 10.421 1.56666 11.213 1.19999C12.0043 0.833327 12.7667 0.649994 13.5 0.649994C14.7667 0.649994 15.8333 1.08333 16.7 1.94999C17.5667 2.81666 18 3.88333 18 5.14999C18 6.83333 17.2917 8.45399 15.875 10.012C14.4583 11.5707 12.9083 13.1083 11.225 14.625L10.075 15.675C9.775 15.9417 9.41667 16.079 9 16.087C8.58333 16.0957 8.225 15.9583 7.925 15.675ZM8.5 4.32499C7.91667 3.35833 7.3 2.67066 6.65 2.26199C6 1.85399 5.28333 1.64999 4.5 1.64999C3.5 1.64999 2.66667 1.98333 2 2.64999C1.33333 3.31666 1 4.14999 1 5.14999C1 5.88333 1.20833 6.63733 1.625 7.41199C2.04167 8.18733 2.604 8.98333 3.312 9.79999C4.02067 10.6167 4.82933 11.45 5.738 12.3C6.646 13.15 7.6 14.025 8.6 14.925C8.71667 15.0417 8.85 15.1 9 15.1C9.15 15.1 9.28333 15.0417 9.4 14.925C10.4 14.025 11.354 13.15 12.262 12.3C13.1707 11.45 13.9793 10.6167 14.688 9.79999C15.396 8.98333 15.9583 8.18733 16.375 7.41199C16.7917 6.63733 17 5.88333 17 5.14999C17 4.14999 16.6667 3.31666 16 2.64999C15.3333 1.98333 14.5 1.64999 13.5 1.64999C12.7167 1.64999 12 1.85399 11.35 2.26199C10.7 2.67066 10.0833 3.35833 9.5 4.32499C9.43333 4.40833 9.35833 4.47499 9.275 4.52499C9.19167 4.57499 9.1 4.59999 9 4.59999C8.9 4.59999 8.80833 4.57499 8.725 4.52499C8.64167 4.47499 8.56667 4.40833 8.5 4.32499Z" fill="black"/>
</svg>
