<svg width="21" height="20" viewBox="0 0 21 20" fill="none" xmlns="http://www.w3.org/2000/svg">
<g id="Component 107">
<path id="Vector" d="M12.9998 8.3335H15.4998C16.3839 8.3335 17.2318 8.68466 17.8568 9.30983C18.482 9.93491 18.8332 10.7827 18.8332 11.6668V16.6668C18.8332 16.8878 18.7453 17.0998 18.5891 17.2561C18.4328 17.4123 18.2208 17.5002 17.9998 17.5002H10.4998C10.2788 17.5002 10.0668 17.4123 9.91059 17.2561C9.75434 17.0998 9.6665 16.8878 9.6665 16.6668V11.6668C9.6665 10.7827 10.0177 9.93491 10.6428 9.30983C11.2679 8.68466 12.1158 8.3335 12.9998 8.3335Z" fill="#C7CED5"/>
<path id="Vector_2" d="M5.49984 8.3335H7.99984C8.88392 8.3335 9.73175 8.68466 10.3568 9.30983C10.982 9.93491 11.3332 10.7827 11.3332 11.6668V16.6668C11.3332 16.8878 11.2453 17.0998 11.0891 17.2561C10.9328 17.4123 10.7208 17.5002 10.4998 17.5002H2.99984C2.77882 17.5002 2.56686 17.4123 2.41058 17.2561C2.2543 17.0998 2.1665 16.8878 2.1665 16.6668V11.6668C2.1665 10.7827 2.51769 9.93491 3.14281 9.30983C3.76794 8.68466 4.61578 8.3335 5.49984 8.3335Z" fill="#6B758F"/>
<path id="Vector_3" d="M6.75 7.5C8.13071 7.5 9.25 6.38071 9.25 5C9.25 3.61929 8.13071 2.5 6.75 2.5C5.36929 2.5 4.25 3.61929 4.25 5C4.25 6.38071 5.36929 7.5 6.75 7.5Z" fill="#6B758F"/>
<path id="Vector_4" d="M14.25 7.5C15.6307 7.5 16.75 6.38071 16.75 5C16.75 3.61929 15.6307 2.5 14.25 2.5C12.8692 2.5 11.75 3.61929 11.75 5C11.75 6.38071 12.8692 7.5 14.25 7.5Z" fill="#C7CED5"/>
</g>
</svg>
