<svg width="12" height="14" viewBox="0 0 12 14" fill="none" xmlns="http://www.w3.org/2000/svg">
<path d="M9.97394 12.1749C7.73201 14.2454 4.17306 14.2454 1.93113 12.1749C-0.17779 10.2269 -0.319965 7.11169 1.60321 5.00606L5.99076 0.274902L10.3783 5.00676C12.209 7.00968 12.0485 10.3296 10.0504 12.1749H9.97394Z" fill="#C8C8C8"/>
<path d="M5.40271 8.38869C4.09333 7.32145 2.91542 7.20045 2.06619 7.34537C1.70082 8.6314 2.06313 10.0518 3.12944 11.0501C4.73158 12.55 7.32971 12.55 8.93185 11.0501C9.58081 10.443 9.96835 9.67894 10.0906 8.88396C8.62686 9.5305 6.88408 9.59663 5.40271 8.38869Z" fill="#DFDFDF"/>
<path d="M2.65402 7.29545C3.42528 7.29545 4.37311 7.54942 5.40273 8.38872C6.23132 9.06409 7.14093 9.34128 8.03832 9.34128C8.74537 9.34128 9.44554 9.16892 10.0907 8.88399C9.96837 9.67897 9.58083 10.443 8.93188 11.0501C8.13081 11.8001 7.08055 12.175 6.03029 12.175C4.98003 12.175 3.93054 11.8001 3.1287 11.0501C2.06239 10.0518 1.70084 8.63143 2.06545 7.3454C2.24737 7.31445 2.44382 7.29545 2.65326 7.29545M2.6525 6.73264C2.4186 6.73264 2.18317 6.75234 1.95309 6.79173C1.71995 6.83183 1.53268 6.99153 1.47306 7.20259C1.04424 8.71374 1.51051 10.3389 2.69148 11.4441C3.58198 12.2778 4.76753 12.7372 6.02876 12.7372C7.28999 12.7372 8.47554 12.2778 9.36604 11.4441C10.0846 10.7715 10.5424 9.92028 10.6915 8.98038C10.6976 8.94872 10.7007 8.91636 10.7007 8.88329C10.7007 8.57374 10.4293 8.32259 10.093 8.32048C10.0914 8.32048 10.0899 8.32048 10.0884 8.32048C10.0823 8.32048 10.0762 8.32048 10.07 8.32048C9.97755 8.32329 9.89041 8.3444 9.8132 8.38028C9.21317 8.64339 8.61542 8.77706 8.03602 8.77706C7.21661 8.77706 6.46599 8.50409 5.80633 7.96661C4.80117 7.14701 3.74021 6.73193 2.6525 6.73193V6.73264Z" fill="#777777"/>
<path d="M3.23802 9.51924C3.32363 9.53964 3.39625 9.59944 3.42453 9.68386C3.53154 10.0054 3.7555 10.2854 4.05514 10.4718C4.17515 10.5464 4.20802 10.6983 4.12776 10.8102C4.0475 10.9221 3.88469 10.9523 3.76468 10.8777C3.36567 10.6294 3.06756 10.2565 2.92539 9.82808C2.88258 9.69934 2.95979 9.56286 3.09737 9.52276C3.14477 9.50869 3.19369 9.50869 3.23878 9.51924H3.23802Z" fill="white"/>
<path d="M9.87098 4.47461C9.87098 4.47461 13.17 10.4841 7.22852 13.4508C7.22852 13.4508 9.5851 13.3347 10.6285 11.4605C11.6719 9.58637 11.8232 8.68798 11.8232 8.68798L11.5878 7.29571L11.1162 6.10114L9.87098 4.47461Z" fill="#B7B7B7"/>
<path d="M8.75302 2.74935L6.2665 0.0977889C6.20993 0.0358794 6.12661 0 6.03871 0C5.95081 0 5.86749 0.0358794 5.81093 0.0977889L1.42339 4.82965C0.44498 5.9004 -0.0587467 7.26101 0.00546124 8.66171C0.0696691 10.0617 0.695696 11.3787 1.76889 12.3692C2.94603 13.4562 4.49237 14 6.03871 14C7.58505 14 9.05495 13.4562 10.2321 12.3692C11.3053 11.3787 11.9313 10.0617 11.9955 8.66171C12.0597 7.26171 11.5033 5.90955 10.5776 4.82965M10.1228 5.18422C11.0049 6.18251 11.4589 7.37638 11.4008 8.63849C11.3427 9.9006 10.7786 11.0874 9.81169 11.9809C7.68901 13.9409 4.31274 13.9409 2.19006 11.9809C1.22312 11.0874 0.658242 9.9006 0.600913 8.63849C0.54282 7.37638 0.996862 6.14945 1.87972 5.18422L6.03871 0.701407L8.13082 2.92101L8.29745 3.10392L8.29975 3.10603" fill="#777777"/>
</svg>
