<svg width="92" height="21" viewBox="0 0 92 21" fill="none" xmlns="http://www.w3.org/2000/svg">
<path d="M0.250545 2.22942H3.88543C3.93603 2.22941 3.98543 2.24477 4.0271 2.27348C4.06876 2.30219 4.10072 2.34288 4.11873 2.39016L8.27091 13.3261C8.28897 13.3733 8.32092 13.4138 8.36255 13.4425C8.40417 13.4711 8.45351 13.4865 8.50403 13.4865C8.55456 13.4865 8.60389 13.4711 8.64552 13.4425C8.68714 13.4138 8.7191 13.3733 8.73716 13.3261L12.8588 2.39016C12.8767 2.3427 12.9086 2.3018 12.9502 2.27285C12.9919 2.2439 13.0414 2.22827 13.0921 2.22803H16.727C16.7672 2.22805 16.8069 2.23782 16.8426 2.25651C16.8782 2.2752 16.9088 2.30225 16.9318 2.33534C16.9547 2.36844 16.9693 2.4066 16.9742 2.44656C16.9792 2.48652 16.9744 2.52708 16.9603 2.56478L10.6313 19.6026C10.6134 19.6505 10.5812 19.6918 10.539 19.7208C10.4969 19.7498 10.4468 19.7652 10.3956 19.7647H6.57671C6.52314 19.7559 6.47312 19.7323 6.43236 19.6964C6.3916 19.6606 6.36174 19.614 6.34619 19.562L0.0158574 2.56617C0.00172556 2.52847 -0.0030626 2.4879 0.0019025 2.44795C0.0068676 2.40799 0.0214382 2.36983 0.0443677 2.33673C0.0672973 2.30364 0.0979033 2.27658 0.133567 2.2579C0.169232 2.23921 0.208892 2.22943 0.249157 2.22942H0.250545Z" fill="white"/>
<path d="M22.0876 3.74182C22.3943 3.43546 22.6033 3.04501 22.6881 2.61985C22.7728 2.1947 22.7296 1.75395 22.5638 1.35338C22.398 0.952806 22.1172 0.610405 21.7567 0.369497C21.3963 0.128589 20.9725 0 20.539 0C20.1055 0 19.6817 0.128589 19.3213 0.369497C18.9609 0.610405 18.68 0.952806 18.5142 1.35338C18.3484 1.75395 18.3052 2.1947 18.39 2.61985C18.4747 3.04501 18.6837 3.43546 18.9904 3.74182C19.4017 4.15152 19.9585 4.38155 20.539 4.38155C21.1195 4.38155 21.6763 4.15152 22.0876 3.74182Z" fill="white"/>
<path d="M28.9426 11.0659H26.7207C26.2755 11.0659 25.8486 11.2428 25.5338 11.5576C25.219 11.8724 25.0421 12.2993 25.0421 12.7445C25.0421 13.1897 25.219 13.6166 25.5338 13.9314C25.8486 14.2462 26.2755 14.4231 26.7207 14.4231H28.9426V11.0659Z" fill="white"/>
<path d="M28.8828 15.4729H31.1047C31.5499 15.4729 31.9768 15.296 32.2916 14.9812C32.6064 14.6664 32.7833 14.2395 32.7833 13.7943C32.7833 13.3491 32.6064 12.9222 32.2916 12.6074C31.9768 12.2926 31.5499 12.1157 31.1047 12.1157H28.8828V15.4729Z" fill="white"/>
<path d="M22.3741 19.7657H18.7062C18.6359 19.761 18.5704 19.7288 18.5238 19.676C18.4772 19.6232 18.4534 19.5541 18.4576 19.4838V6.00554C18.4536 5.93529 18.4775 5.8663 18.524 5.81353C18.5705 5.76075 18.636 5.72845 18.7062 5.72363H22.3741C22.4443 5.72828 22.5099 5.76052 22.5565 5.81334C22.603 5.86615 22.6268 5.93525 22.6226 6.00554V19.4824C22.6266 19.5526 22.6028 19.6216 22.5563 19.6744C22.5097 19.7272 22.4443 19.7595 22.3741 19.7643V19.7657Z" fill="white"/>
<path d="M91.7526 2.10303H88.0837C88.0177 2.10303 87.9545 2.12922 87.9079 2.17583C87.8613 2.22245 87.8351 2.28568 87.8351 2.3516V19.5158C87.8351 19.5817 87.8613 19.6449 87.9079 19.6915C87.9545 19.7382 88.0177 19.7643 88.0837 19.7643H91.7526C91.8185 19.7643 91.8817 19.7382 91.9283 19.6915C91.975 19.6449 92.0011 19.5817 92.0011 19.5158V2.3516C92.0011 2.28568 91.975 2.22245 91.9283 2.17583C91.8817 2.12922 91.8185 2.10303 91.7526 2.10303Z" fill="white"/>
<path d="M49.5041 7.34762C49.5041 7.34762 46.8687 7.23167 45.6363 9.08626C45.6155 9.12013 45.5865 9.14827 45.5521 9.16811C45.5176 9.18796 45.4788 9.19887 45.439 9.19987C45.3993 9.20088 45.3599 9.19193 45.3245 9.17384C45.2891 9.15576 45.2588 9.12911 45.2363 9.09633C44.8322 8.50336 43.7393 7.34762 41.3543 7.34762C40.7704 7.36554 40.2005 7.53006 39.6969 7.82603C39.6599 7.84958 39.6172 7.86269 39.5734 7.86397C39.5296 7.86525 39.4862 7.85466 39.448 7.83331C39.4097 7.81196 39.3779 7.78065 39.3559 7.74269C39.334 7.70474 39.3227 7.66156 39.3233 7.61772V7.59724C39.324 7.53208 39.2987 7.46932 39.2532 7.42272C39.2076 7.37612 39.1455 7.34949 39.0803 7.34867H35.494C35.4288 7.34949 35.3667 7.37612 35.3211 7.42272C35.2756 7.46932 35.2503 7.53208 35.251 7.59724V19.5132C35.2503 19.5784 35.2756 19.6411 35.3211 19.6877C35.3667 19.7343 35.4288 19.761 35.494 19.7618H39.0803C39.1455 19.761 39.2076 19.7343 39.2532 19.6877C39.2987 19.6411 39.324 19.5784 39.3233 19.5132V12.868C39.3299 12.7965 39.3424 12.7253 39.3553 12.6538C39.4211 12.266 39.5946 11.9046 39.8559 11.6105C39.8687 11.5953 39.8816 11.5814 39.8955 11.5671C39.9208 11.5404 39.9465 11.5147 39.9732 11.4908C39.9937 11.4703 40.0138 11.4512 40.0367 11.4321C40.0663 11.4068 40.0982 11.3811 40.1287 11.3568L40.1784 11.3186C40.5209 11.0661 40.9351 10.9298 41.3605 10.9294C41.8829 10.934 42.384 11.1371 42.7622 11.4976C43.1404 11.858 43.3673 12.3488 43.397 12.8704V19.5156C43.3964 19.5808 43.4216 19.6436 43.4672 19.6902C43.5127 19.7368 43.5749 19.7634 43.64 19.7642H47.2263C47.2586 19.7639 47.2905 19.7572 47.3202 19.7445C47.3499 19.7319 47.3769 19.7135 47.3994 19.6904C47.422 19.6673 47.4398 19.64 47.4518 19.61C47.4638 19.58 47.4698 19.5479 47.4693 19.5156V12.8694C47.4721 12.8666 47.4747 12.8636 47.477 12.8604C47.5086 12.3418 47.7353 11.8545 48.1116 11.4963C48.4878 11.1381 48.9857 10.9355 49.5052 10.9294C49.8059 10.9295 50.1027 10.998 50.3731 11.1297C50.3988 11.1412 50.4227 11.154 50.4484 11.1669L50.5158 11.205C50.7243 11.3221 50.9082 11.4784 51.0574 11.6654C51.0726 11.6831 51.0865 11.7022 51.1008 11.7203C51.115 11.7383 51.1313 11.7612 51.1452 11.7814C51.3327 12.0429 51.4577 12.344 51.5108 12.6614C51.5253 12.7302 51.536 12.7998 51.5427 12.8697V19.5132C51.5421 19.5784 51.5673 19.6411 51.6128 19.6877C51.6584 19.7343 51.7206 19.761 51.7857 19.7618H55.371C55.4033 19.7614 55.4352 19.7547 55.4648 19.742C55.4945 19.7293 55.5214 19.7109 55.544 19.6878C55.5665 19.6648 55.5843 19.6375 55.5964 19.6075C55.6084 19.5775 55.6144 19.5455 55.614 19.5132V12.558C55.5987 12.317 55.204 7.34762 49.5038 7.34762H49.5041Z" fill="white"/>
<path d="M81.1757 7.55375V7.66728C81.1756 7.70844 81.1654 7.74895 81.1458 7.78516C81.1262 7.82137 81.0979 7.85212 81.0634 7.87465C81.029 7.89719 80.9895 7.91078 80.9485 7.91422C80.9074 7.91765 80.8662 7.91082 80.8285 7.89433C79.8856 7.47148 78.8518 7.29134 77.8215 7.37034C76.7911 7.44933 75.7969 7.78495 74.9295 8.3466C74.0621 8.90825 73.3491 9.67807 72.8554 10.5859C72.3617 11.4937 72.103 12.5106 72.103 13.544C72.103 14.5774 72.3617 15.5943 72.8554 16.5022C73.3491 17.41 74.0621 18.1798 74.9295 18.7414C75.7969 19.3031 76.7911 19.6387 77.8215 19.7177C78.8518 19.7967 79.8856 19.6166 80.8285 19.1937C80.8662 19.1772 80.9074 19.1704 80.9485 19.1738C80.9895 19.1773 81.029 19.1909 81.0634 19.2134C81.0979 19.2359 81.1262 19.2667 81.1458 19.3029C81.1654 19.3391 81.1756 19.3796 81.1757 19.4208V19.5124C81.1757 19.5783 81.202 19.6415 81.2486 19.6881C81.2952 19.7347 81.3583 19.7609 81.4242 19.761H85.0924C85.1583 19.7609 85.2215 19.7347 85.2681 19.6881C85.3147 19.6415 85.3409 19.5783 85.341 19.5124V7.55375C85.3409 7.48785 85.3147 7.42468 85.2681 7.37808C85.2215 7.33149 85.1583 7.30527 85.0924 7.30518H81.4242C81.3583 7.30527 81.2952 7.33149 81.2486 7.37808C81.202 7.42468 81.1757 7.48785 81.1757 7.55375ZM78.8781 16.3917C78.3736 16.3927 77.8779 16.2597 77.4418 16.0062C77.0056 15.7527 76.6447 15.3878 76.3959 14.949C76.1471 14.5101 76.0193 14.013 76.0258 13.5086C76.0322 13.0042 76.1725 12.5105 76.4325 12.0782C76.6924 11.6458 77.0625 11.2903 77.505 11.048C77.9474 10.8057 78.4463 10.6853 78.9506 10.6992C79.4549 10.713 79.9464 10.8607 80.3749 11.1269C80.8034 11.3932 81.1534 11.7685 81.3892 12.2145C81.4106 12.2554 81.4215 12.301 81.4211 12.3471V14.8138C81.1861 15.2875 80.8236 15.6862 80.3743 15.9649C79.925 16.2437 79.4068 16.3915 78.8781 16.3917Z" fill="white"/>
<path d="M66.6298 15.6303C66.5825 15.6307 66.536 15.643 66.4948 15.6662C66.4536 15.6894 66.4189 15.7227 66.394 15.7629C66.1194 16.1658 65.7481 16.4934 65.314 16.7155C64.88 16.9377 64.3971 17.0474 63.9097 17.0346C62.5477 17.0346 61.4139 16.2094 61.1438 15.1099C61.1355 15.0705 61.1363 15.0298 61.146 14.9907C61.1558 14.9517 61.1742 14.9154 61.1999 14.8845C61.2257 14.8536 61.2581 14.8289 61.2947 14.8122C61.3313 14.7956 61.3712 14.7874 61.4114 14.7884H70.2789C70.3428 14.7895 70.405 14.768 70.4544 14.7275C70.5039 14.6871 70.5374 14.6304 70.549 14.5676C70.6025 14.2331 70.6296 13.895 70.6302 13.5563C70.6302 9.78357 67.3637 6.75171 63.4295 6.99022C61.8109 7.0773 60.2786 7.74772 59.1161 8.87743C57.9537 10.0071 57.2398 11.5197 57.1065 13.1352C56.8617 16.9606 59.9807 20.1352 63.8614 20.1352C65.2009 20.1446 66.513 19.7563 67.6316 19.0195C68.7502 18.2827 69.625 17.2305 70.1452 15.9962C70.1614 15.9552 70.1672 15.9109 70.1621 15.8672C70.1571 15.8234 70.1413 15.7816 70.1163 15.7454C70.0912 15.7092 70.0576 15.6797 70.0185 15.6596C69.9793 15.6394 69.9358 15.6293 69.8918 15.6299H66.6284L66.6298 15.6303ZM61.9426 11.8378C61.9132 11.8408 61.8835 11.837 61.8558 11.8267C61.828 11.8164 61.803 11.8 61.7826 11.7786C61.7622 11.7572 61.747 11.7314 61.7381 11.7032C61.7292 11.675 61.7268 11.6452 61.7312 11.6159C61.9364 10.8046 62.8334 10.1925 63.9111 10.1925C64.9887 10.1925 65.8858 10.8036 66.091 11.6159C66.0953 11.6452 66.0929 11.675 66.0839 11.7031C66.075 11.7313 66.0597 11.757 66.0394 11.7784C66.019 11.7998 65.994 11.8163 65.9663 11.8266C65.9386 11.8368 65.9089 11.8407 65.8795 11.8378H61.9426Z" fill="white"/>
</svg>
