<svg width="24" height="24" viewBox="0 0 24 24" fill="none" xmlns="http://www.w3.org/2000/svg">
<path d="M2 11C2 5.47715 6.4772 1 12 1C17.5229 1 22 5.47715 22 11C22 16.5228 17.5229 21 12 21C6.4772 21 2 16.5228 2 11Z" fill="#88BFFF"/>
<path d="M19 18.1406L22 21.0006H12V19.0006L19 18.1406Z" fill="#88BFFF"/>
<path d="M9.5 12H16.5C16.7761 12 17 12.2239 17 12.5V13.5C17 13.7761 16.7761 14 16.5 14H9.5C9.2239 14 9 13.7761 9 13.5V12.5C9 12.2239 9.2239 12 9.5 12Z" fill="white"/>
<path d="M7.5 8H16.5C16.7761 8 17 8.22386 17 8.5V9.5C17 9.77614 16.7761 10 16.5 10H7.5C7.2239 10 7 9.77614 7 9.5V8.5C7 8.22386 7.2239 8 7.5 8Z" fill="white"/>
</svg>
