<svg width="16" height="16" viewBox="0 0 16 16" fill="none" xmlns="http://www.w3.org/2000/svg">
<mask id="mask0_2658_9604" style="mask-type:alpha" maskUnits="userSpaceOnUse" x="0" y="0" width="16" height="16">
<rect width="16" height="16" fill="#E0F4FF"/>
</mask>
<g mask="url(#mask0_2658_9604)">
<path d="M8.40539 7.94205L5.10085 7.00696C4.38326 6.80422 3.9707 6.07318 4.17901 5.3745L5.13872 2.15582C5.34703 1.45714 6.09708 1.05497 6.81467 1.25837L10.1192 2.19346C10.8368 2.3962 11.2494 3.12724 11.041 3.82592L10.0813 7.0446C9.87302 7.74328 9.12297 8.14545 8.40539 7.94205Z" fill="#DFDFDF"/>
<path d="M10.1195 2.19281L8.9156 1.85205C9.52159 2.11884 9.84961 2.78582 9.65888 3.42573L8.69511 6.65828C8.50236 7.30347 7.8497 7.69639 7.18555 7.59667L8.40564 7.94205C9.12323 8.14479 9.87328 7.74328 10.0816 7.0446L11.0413 3.82592C11.2496 3.12724 10.837 2.3962 10.1195 2.19347V2.19281Z" fill="#C8C8C8"/>
<path d="M6.72632 14.2432L3.32912 14.7781C2.59192 14.8944 1.89733 14.4064 1.7783 13.6879L1.22845 10.3794C1.10941 9.66088 1.60989 8.98465 2.34777 8.86843L5.74497 8.33352C6.48217 8.2173 7.17675 8.70531 7.29579 9.4238L7.84497 12.7323C7.964 13.4508 7.46419 14.127 6.72632 14.2432Z" fill="#C8C8C8"/>
<path d="M7.84408 12.7323L7.2949 9.4238C7.17587 8.70531 6.48128 8.2173 5.74408 8.33352L4.47461 8.53362C5.15364 8.50984 5.76031 8.98135 5.8719 9.65163L6.42717 12.9958C6.52659 13.5941 6.19992 14.1633 5.66427 14.411L6.72543 14.2439C7.46263 14.1277 7.96379 13.4514 7.84475 12.733L7.84408 12.7323Z" fill="#B7B7B7"/>
<path d="M13.4364 14.4342H9.99523C9.24857 14.4342 8.64258 13.8445 8.64258 13.1168V9.76472C8.64258 9.03698 9.24789 8.44727 9.99523 8.44727H13.4364C14.1831 8.44727 14.7891 9.03698 14.7891 9.76472V13.1168C14.7891 13.8445 14.1837 14.4342 13.4364 14.4342Z" fill="#DFDFDF"/>
<path d="M13.4377 8.44793H12.3359C12.9392 8.58727 13.3876 9.11491 13.3876 9.74491V13.1373C13.3876 13.7673 12.9392 14.2949 12.3359 14.4342H13.4377C14.1843 14.4342 14.7903 13.8445 14.7903 13.1168V9.76472C14.7903 9.03698 14.185 8.44727 13.4377 8.44727V8.44793Z" fill="#C8C8C8"/>
<path d="M7.47512 6.01636C7.44401 6.01636 7.41087 6.01174 7.37976 6.0025C7.27154 5.97212 7.16942 5.89089 7.20121 5.78589L7.78014 3.84372L7.66652 3.92231H7.66517C7.6415 3.93618 7.61309 3.94278 7.58604 3.94278C7.57319 3.94278 7.56169 3.94146 7.55087 3.93816C7.50623 3.92561 7.47038 3.89259 7.45077 3.8457C7.43319 3.80344 7.43116 3.75457 7.44401 3.71033C7.46362 3.64561 7.51908 3.5875 7.58266 3.56636L8.07638 3.3141C8.10275 3.29957 8.12913 3.29297 8.15686 3.29297C8.17377 3.29297 8.19067 3.29561 8.20961 3.30089C8.307 3.32863 8.39425 3.41646 8.36584 3.51155L7.64961 5.91335C7.63 5.97806 7.56507 6.01703 7.47512 6.01703V6.01636Z" fill="#777777"/>
<path d="M3.96443 13.07C3.87854 13.07 3.77911 13.025 3.76559 12.9425L3.70539 12.5806C3.65264 12.261 3.94346 11.9744 4.22482 11.6964C4.49805 11.4269 4.75641 11.1727 4.71177 10.9026C4.68607 10.7481 4.56298 10.5922 4.34655 10.5922C4.32018 10.5922 4.29312 10.5942 4.26539 10.5988C4.16056 10.6153 4.07738 10.6576 4.02395 10.7217C3.96511 10.7923 3.94482 10.8848 3.96308 10.9977C3.97728 11.0842 3.90153 11.1879 3.75003 11.2123C3.7338 11.215 3.71757 11.2163 3.70269 11.2163C3.59042 11.2163 3.52143 11.143 3.49709 10.9984C3.43216 10.6067 3.73245 10.2561 4.19573 10.1834C4.24849 10.1749 4.30192 10.1709 4.35399 10.1709C4.77805 10.1709 5.10607 10.4311 5.17032 10.8194C5.24945 11.2968 4.86868 11.6581 4.5623 11.9486C4.34114 12.1586 4.14974 12.3396 4.17747 12.5067L4.19641 12.6216L5.29409 12.4485C5.30018 12.4472 5.30694 12.4472 5.31303 12.4472C5.39486 12.4472 5.47197 12.5238 5.4882 12.6216C5.50578 12.7292 5.44559 12.8395 5.36037 12.8534L3.99757 13.068C3.98675 13.07 3.97457 13.0706 3.9624 13.0706L3.96443 13.07Z" fill="#777777"/>
<path d="M11.7037 12.8606C11.423 12.8606 11.189 12.782 11.0287 12.6328C10.8948 12.5086 10.8184 12.3396 10.8184 12.1685C10.8184 12.0246 10.8772 11.9711 11.0361 11.9711C11.21 11.9711 11.2776 12.0213 11.2776 12.1494C11.2776 12.2993 11.4101 12.4505 11.7071 12.4505C12.004 12.4505 12.148 12.3184 12.148 12.0094V11.9374C12.148 11.6785 12.0026 11.5531 11.703 11.5531C11.6043 11.5531 11.5434 11.4818 11.5434 11.3668C11.5434 11.2519 11.6049 11.1773 11.703 11.1773C11.9282 11.1773 12.0784 11.1113 12.0784 10.789C12.0784 10.5387 11.9674 10.4271 11.7186 10.4271C11.4081 10.4271 11.3432 10.581 11.3432 10.7098C11.3432 10.8385 11.2688 10.8993 11.1214 10.8993C10.932 10.8993 10.8799 10.8537 10.8799 10.6867C10.8799 10.4397 11.0571 10.021 11.7226 10.021C12.2583 10.021 12.5301 10.2568 12.5301 10.721C12.5301 11.0089 12.428 11.2387 12.2549 11.3484C12.4909 11.458 12.6154 11.6601 12.6154 11.9374V12.0094C12.6154 12.327 12.497 12.8606 11.703 12.8606H11.7037Z" fill="#777777"/>
<path d="M13.4377 8.24316H9.99659C9.13495 8.24316 8.43359 8.92599 8.43359 9.76533V13.1174C8.43359 13.9567 9.13495 14.6396 9.99659 14.6396H13.4377C14.2994 14.6396 15.0007 13.9567 15.0007 13.1174V9.76533C15.0007 8.92599 14.2994 8.24316 13.4377 8.24316ZM14.5801 13.1174C14.5801 13.7309 14.0681 14.2295 13.4377 14.2295H9.99659C9.36693 14.2295 8.85427 13.7302 8.85427 13.1174V9.76533C8.85427 9.15184 9.36625 8.65326 9.99659 8.65326H13.4377C14.0674 8.65326 14.5801 9.1525 14.5801 9.76533V13.1174Z" fill="#777777"/>
<path d="M11.112 2.72451C10.9111 2.36791 10.5791 2.1097 10.1787 1.99612L6.87345 1.06168C6.47239 0.948098 6.05036 0.993664 5.68446 1.1898C5.31857 1.38593 5.05277 1.70885 4.93645 2.09914L4.6578 3.03357L4.64765 3.06725L4.62466 3.14319L4.30678 4.2097L3.97674 5.31715C3.86041 5.70744 3.90707 6.11885 4.10794 6.47546C4.30881 6.83206 4.64089 7.09027 5.04128 7.20385L8.34582 8.13895C8.49055 8.17989 8.63732 8.1997 8.78137 8.1997C9.45905 8.1997 10.0847 7.76649 10.2828 7.10215L11.2425 3.88348C11.3589 3.49319 11.3122 3.08178 11.1113 2.72517L11.112 2.72451ZM10.8394 3.76791L9.87973 6.98659C9.70389 7.57564 9.06949 7.91574 8.46417 7.7447L5.15963 6.80961C4.86678 6.7264 4.62466 6.53753 4.47722 6.27734C4.33046 6.01715 4.29596 5.71668 4.38118 5.4314L4.69229 4.38866L4.71393 4.31602L4.75248 4.18725L5.10147 3.0164L5.34089 2.21272C5.42611 1.92744 5.62021 1.69168 5.88736 1.54838C6.15451 1.40508 6.46292 1.37206 6.75645 1.45461L10.061 2.3897C10.3538 2.47225 10.596 2.66178 10.7434 2.92197C10.8902 3.18215 10.9247 3.48263 10.8394 3.76791Z" fill="#777777"/>
<path d="M8.05232 12.7L7.50314 9.39084C7.36585 8.56207 6.5617 7.99745 5.71087 8.13084L2.31368 8.66575C1.90179 8.73047 1.53996 8.94773 1.2958 9.27792C1.05165 9.60745 0.95358 10.0103 1.02054 10.4118L1.20382 11.5146L1.39793 12.6828L1.57039 13.7203C1.63735 14.1218 1.85986 14.4738 2.1987 14.7115C2.46788 14.9004 2.7844 14.9994 3.10971 14.9994C3.19358 14.9994 3.27812 14.9928 3.36266 14.9796L6.75986 14.4447C7.17174 14.38 7.53358 14.1627 7.77773 13.8325C8.02189 13.503 8.11996 13.1002 8.053 12.6987L8.05232 12.7ZM7.43551 13.5941C7.25696 13.8352 6.99319 13.9937 6.69155 14.0412L3.29435 14.5761C2.99339 14.6237 2.69107 14.5537 2.44353 14.38C2.19599 14.2063 2.033 13.9488 1.9843 13.6556L1.81455 12.6333L1.81252 12.6221L1.77464 12.3949L1.56566 11.1382L1.43445 10.3471C1.38575 10.0539 1.45744 9.75933 1.63599 9.5183C1.81455 9.27726 2.07831 9.11877 2.37996 9.07122L5.77715 8.53566C6.3987 8.43792 6.98643 8.85066 7.0872 9.45622L7.63638 12.7654C7.68508 13.0586 7.61339 13.3531 7.43483 13.5941H7.43551Z" fill="#777777"/>
<path d="M9.56347 12.6245C9.67439 12.6245 9.76367 12.7117 9.76367 12.82V13.1442C9.76367 13.2928 9.89285 13.5213 10.2175 13.5213H10.5496C10.6598 13.5213 10.7498 13.6091 10.7498 13.7168C10.7498 13.8251 10.6598 13.9122 10.5496 13.9122H10.2175C9.67169 13.9122 9.36328 13.6772 9.36328 13.1442V12.82C9.36328 12.7123 9.45323 12.6245 9.56347 12.6245Z" fill="white"/>
</g>
</svg>
