<svg width="91" height="20" viewBox="0 0 91 20" fill="none" xmlns="http://www.w3.org/2000/svg">
<g clip-path="url(#clip0_1107_5031)">
<path d="M0.247771 2.21465H3.84306C3.94513 2.21465 4.03713 2.27799 4.07367 2.37427L8.18059 13.2376C8.26125 13.4505 8.56117 13.4505 8.64182 13.2376L12.7185 2.37427C12.755 2.27799 12.847 2.21338 12.9491 2.21338H16.5444C16.7158 2.21338 16.8355 2.38567 16.775 2.54783L10.5157 19.4706C10.4792 19.5682 10.3859 19.6328 10.2826 19.6315H6.50456C6.40248 19.6315 6.31175 19.5264 6.27646 19.4301L0.0158977 2.5491C-0.0445908 2.38694 0.0751261 2.21465 0.24651 2.21465H0.247771Z" fill="#00A5FD"/>
<path d="M21.8473 3.71812C22.6932 2.86766 22.6932 1.48879 21.8473 0.638328C21.0013 -0.212133 19.6297 -0.212134 18.7837 0.638327C17.9377 1.48879 17.9377 2.86766 18.7837 3.71812C19.6297 4.56858 21.0013 4.56858 21.8473 3.71812Z" fill="#00A5FD"/>
<path d="M28.6283 10.9927H26.4318C25.5157 10.9927 24.7734 11.7389 24.7734 12.6599C24.7734 13.5809 25.5157 14.3271 26.4318 14.3271H28.6283V10.9939V10.9927Z" fill="#00A5FD"/>
<path d="M28.5684 15.3695H30.7649C31.681 15.3695 32.4232 14.6234 32.4232 13.7024C32.4232 12.7813 31.681 12.0352 30.7649 12.0352H28.5684V15.3683V15.3695Z" fill="#00A5FD"/>
<path d="M22.1296 19.6325H18.5016C18.3655 19.6325 18.2559 19.507 18.2559 19.3525V5.96552C18.2559 5.81097 18.3668 5.68555 18.5016 5.68555H22.1296C22.2657 5.68555 22.3754 5.81097 22.3754 5.96552V19.3512C22.3754 19.5058 22.2645 19.6312 22.1296 19.6312V19.6325Z" fill="#00A5FD"/>
<path d="M90.754 2.09033H87.1246C86.9889 2.09033 86.8789 2.20094 86.8789 2.33737V19.3856C86.8789 19.522 86.9889 19.6326 87.1246 19.6326H90.754C90.8897 19.6326 90.9997 19.522 90.9997 19.3856V2.33737C90.9997 2.20094 90.8897 2.09033 90.754 2.09033Z" fill="#00A5FD"/>
<path d="M48.9661 7.29977C48.9661 7.29977 46.3588 7.18448 45.1402 9.0265C45.0444 9.17093 44.8402 9.17979 44.7445 9.03664C44.345 8.44755 43.2638 7.29977 40.9047 7.29977C40.9047 7.29977 40.015 7.29977 39.2652 7.77484C39.1039 7.87746 38.896 7.76217 38.896 7.56708V7.54681C38.896 7.40998 38.7876 7.29977 38.6553 7.29977H35.1079C34.9743 7.29977 34.8672 7.41125 34.8672 7.54681V19.3831C34.8672 19.5199 34.9756 19.6302 35.1079 19.6302H38.6553C38.7889 19.6302 38.896 19.5187 38.896 19.3831V12.7828C38.9023 12.7118 38.9149 12.6409 38.9275 12.5699C38.9943 12.1747 39.1707 11.8187 39.4227 11.5336C39.4353 11.5184 39.4479 11.5045 39.4618 11.4906C39.487 11.464 39.5122 11.4386 39.5387 11.4145C39.5588 11.3943 39.579 11.3753 39.6017 11.3563C39.6307 11.3309 39.6622 11.3056 39.6924 11.2815C39.7088 11.2689 39.7252 11.2562 39.7416 11.2435C40.0717 11.0015 40.4737 10.8571 40.911 10.8571C42.0225 10.8293 42.8857 11.8073 42.9248 12.7853V19.3857C42.9248 19.5225 43.0331 19.6327 43.1655 19.6327H46.7129C46.8464 19.6327 46.9536 19.5225 46.9536 19.3857V12.784C46.9536 12.784 46.9599 12.7777 46.9611 12.7752C47.038 11.7034 47.9063 10.8571 48.9673 10.8571C49.2748 10.8571 49.5646 10.9293 49.8255 11.056C49.8507 11.0674 49.8747 11.0801 49.8999 11.0928C49.9225 11.1054 49.944 11.1181 49.9666 11.1308C50.191 11.2575 50.3661 11.4171 50.5022 11.5881C50.5173 11.6058 50.5312 11.6248 50.5451 11.6426C50.5602 11.6629 50.5753 11.6831 50.5892 11.7034C50.7706 11.9568 50.8967 12.2545 50.9508 12.5775C50.976 12.7029 50.9823 12.7828 50.9823 12.7828V19.3831C50.9823 19.5199 51.0907 19.6302 51.223 19.6302H54.7692C54.9028 19.6302 55.0099 19.5187 55.0099 19.3831V12.4914C55.0099 12.4914 55.0099 12.48 55.0099 12.4749C54.9948 12.2355 54.6041 7.29977 48.9673 7.29977H48.9661Z" fill="#00A5FD"/>
<path d="M80.2917 7.50485V7.6176C80.2917 7.79623 80.109 7.91658 79.9464 7.8431C78.9509 7.39337 77.8142 7.20207 76.6196 7.35916C73.8724 7.72149 71.6671 9.98791 71.3646 12.756C70.9576 16.4654 73.8358 19.6047 77.4437 19.6047C78.3359 19.6047 79.1828 19.4121 79.9464 19.0663C80.109 18.9928 80.2917 19.1131 80.2917 19.2918V19.383C80.2917 19.5198 80.4026 19.63 80.5375 19.63H84.1655C84.3016 19.63 84.4113 19.5185 84.4113 19.383V7.50485C84.4113 7.36803 84.3004 7.25781 84.1655 7.25781H80.5375C80.4014 7.25781 80.2917 7.3693 80.2917 7.50485ZM78.0184 16.283C76.428 16.283 75.1464 14.9566 75.2082 13.3438C75.2649 11.8477 76.5288 10.6277 78.0171 10.6277C79.0958 10.6277 80.0296 11.2383 80.5022 12.134C80.5236 12.1745 80.5337 12.2201 80.5337 12.2657V14.7158C80.0725 15.6445 79.121 16.283 78.0184 16.283Z" fill="#00A5FD"/>
<path d="M65.9039 15.5254C65.8068 15.5254 65.7211 15.5773 65.6707 15.6571C65.1982 16.4096 64.277 16.9202 63.2134 16.9202C61.8662 16.9202 60.7447 16.1005 60.4775 15.0085C60.4372 14.8451 60.5708 14.6892 60.7422 14.6892H69.513C69.6453 14.6892 69.76 14.5967 69.7802 14.4701C69.8318 14.1419 69.8608 13.8075 69.8608 13.4654C69.8608 9.71805 66.6297 6.70798 62.7383 6.94362C59.4039 7.14505 56.6907 9.79406 56.484 13.0486C56.2421 16.8467 59.327 19.9999 63.1655 19.9999C65.9858 19.9999 68.3965 18.2973 69.382 15.889C69.4525 15.7154 69.3227 15.5254 69.1312 15.5254H65.9026H65.9039ZM61.2677 11.7577C61.1328 11.7577 61.0295 11.6513 61.0585 11.5373C61.2614 10.7315 62.1485 10.1234 63.2146 10.1234C64.2807 10.1234 65.1679 10.7303 65.3708 11.5373C65.3998 11.65 65.2965 11.7577 65.1616 11.7577H61.2677Z" fill="#00A5FD"/>
</g>
<defs>
<clipPath id="clip0_1107_5031">
<rect width="91" height="20" fill="white"/>
</clipPath>
</defs>
</svg>
