<svg width="21" height="20" viewBox="0 0 21 20" fill="none" xmlns="http://www.w3.org/2000/svg">
<path d="M16.7502 3.34961H4.25016C3.32969 3.34961 2.5835 4.0958 2.5835 5.01628V15.8496C2.5835 16.7701 3.32969 17.5163 4.25016 17.5163H16.7502C17.6707 17.5163 18.4168 16.7701 18.4168 15.8496V5.01628C18.4168 4.0958 17.6707 3.34961 16.7502 3.34961Z" fill="#F4868F"/>
<path d="M7.56684 2.51611H6.75016C6.52005 2.51611 6.3335 2.70266 6.3335 2.93278V4.59945C6.3335 4.82956 6.52005 5.01611 6.75016 5.01611H7.56684C7.79695 5.01611 7.9835 4.82956 7.9835 4.59945V2.93278C7.9835 2.70266 7.79695 2.51611 7.56684 2.51611Z" fill="#707070"/>
<path d="M7.78337 7.9165H6.53337C6.30325 7.9165 6.1167 8.10305 6.1167 8.33317V9.58317C6.1167 9.81325 6.30325 9.99984 6.53337 9.99984H7.78337C8.01349 9.99984 8.20003 9.81325 8.20003 9.58317V8.33317C8.20003 8.10305 8.01349 7.9165 7.78337 7.9165Z" fill="white"/>
<path d="M11.1252 7.9165H9.87516C9.64508 7.9165 9.4585 8.10305 9.4585 8.33317V9.58317C9.4585 9.81325 9.64508 9.99984 9.87516 9.99984H11.1252C11.3552 9.99984 11.5418 9.81325 11.5418 9.58317V8.33317C11.5418 8.10305 11.3552 7.9165 11.1252 7.9165Z" fill="white"/>
<path d="M14.4665 7.9165H13.2165C12.9863 7.9165 12.7998 8.10305 12.7998 8.33317V9.58317C12.7998 9.81325 12.9863 9.99984 13.2165 9.99984H14.4665C14.6966 9.99984 14.8831 9.81325 14.8831 9.58317V8.33317C14.8831 8.10305 14.6966 7.9165 14.4665 7.9165Z" fill="white"/>
<path d="M14.25 2.51611H13.4167C13.1866 2.51611 13 2.70266 13 2.93278V4.59945C13 4.82956 13.1866 5.01611 13.4167 5.01611H14.25C14.4801 5.01611 14.6667 4.82956 14.6667 4.59945V2.93278C14.6667 2.70266 14.4801 2.51611 14.25 2.51611Z" fill="#707070"/>
<path d="M7.78337 11.6665H6.53337C6.30325 11.6665 6.1167 11.8531 6.1167 12.0832V13.3332C6.1167 13.5633 6.30325 13.7498 6.53337 13.7498H7.78337C8.01349 13.7498 8.20003 13.5633 8.20003 13.3332V12.0832C8.20003 11.8531 8.01349 11.6665 7.78337 11.6665Z" fill="white"/>
<path d="M11.1252 11.6665H9.87516C9.64508 11.6665 9.4585 11.8531 9.4585 12.0832V13.3332C9.4585 13.5633 9.64508 13.7498 9.87516 13.7498H11.1252C11.3552 13.7498 11.5418 13.5633 11.5418 13.3332V12.0832C11.5418 11.8531 11.3552 11.6665 11.1252 11.6665Z" fill="white"/>
<path d="M14.4665 11.6665H13.2165C12.9863 11.6665 12.7998 11.8531 12.7998 12.0832V13.3332C12.7998 13.5633 12.9863 13.7498 13.2165 13.7498H14.4665C14.6966 13.7498 14.8831 13.5633 14.8831 13.3332V12.0832C14.8831 11.8531 14.6966 11.6665 14.4665 11.6665Z" fill="white"/>
</svg>
