<svg width="64" height="64" viewBox="0 0 64 64" fill="none" xmlns="http://www.w3.org/2000/svg">
<rect x="0.5" y="0.5" width="63" height="63" rx="31.5" fill="white"/>
<mask id="mask0_1353_1901" style="mask-type:alpha" maskUnits="userSpaceOnUse" x="8" y="8" width="48" height="48">
<rect x="8" y="8" width="48" height="48" fill="#D9D9D9"/>
</mask>
<g mask="url(#mask0_1353_1901)">
<path d="M20.8 45.8C19.7333 45.8 18.8333 45.4333 18.1 44.7C17.3667 43.9667 17 43.0667 17 42V40.85C17 39.7167 17.4333 38.6747 18.3 37.724C19.1667 36.7747 20.3 35.95 21.7 35.25C23.1 34.55 24.6833 34 26.45 33.6C28.2167 33.2 30 33 31.8 33C33.6333 33 35.45 33.2 37.25 33.6C39.05 34 40.6747 34.55 42.124 35.25C43.5747 35.95 44.75 36.7833 45.65 37.75C46.55 38.7167 47 39.7667 47 40.9V42C47 43.0667 46.6333 43.9667 45.9 44.7C45.1667 45.4333 44.2667 45.8 43.2 45.8H20.8ZM20.8 43.8H43.2C43.6667 43.8 44.0833 43.6247 44.45 43.274C44.8167 42.9247 45 42.5 45 42V40.85C45 39.5833 43.708 38.292 41.124 36.976C38.5413 35.6587 35.4333 35 31.8 35C28.1 35 25.0413 35.6587 22.624 36.976C20.208 38.292 19 39.6 19 40.9V42C19 42.5 19.1833 42.9247 19.55 43.274C19.9167 43.6247 20.3333 43.8 20.8 43.8ZM31.8 29C30.1333 29 28.7167 28.4167 27.55 27.25C26.3833 26.0833 25.8 24.6667 25.8 23C25.8 21.3333 26.3833 19.9167 27.55 18.75C28.7167 17.5833 30.1333 17 31.8 17C33.5 17 34.9253 17.5833 36.076 18.75C37.2253 19.9167 37.8 21.3333 37.8 23C37.8 24.6667 37.2167 26.0833 36.05 27.25C34.8833 28.4167 33.4667 29 31.8 29ZM31.8 27C32.9 27 33.8413 26.608 34.624 25.824C35.408 25.0413 35.8 24.1 35.8 23C35.8 21.9 35.408 20.9587 34.624 20.176C33.8413 19.392 32.9 19 31.8 19C30.7 19 29.7587 19.392 28.976 20.176C28.192 20.9587 27.8 21.9 27.8 23C27.8 24.1 28.192 25.0413 28.976 25.824C29.7587 26.608 30.7 27 31.8 27Z" fill="#949494"/>
</g>
<rect x="0.5" y="0.5" width="63" height="63" rx="31.5" stroke="#DFDFDF"/>
</svg>
