<svg width="8" height="8" viewBox="0 0 8 8" fill="none" xmlns="http://www.w3.org/2000/svg">
<path d="M4 5.96874C4.4375 5.96874 4.80556 5.81943 5.10417 5.52082C5.40278 5.22221 5.55208 4.85416 5.55208 4.41666C5.55208 3.97916 5.40278 3.6111 5.10417 3.31249C4.80556 3.01388 4.4375 2.86457 4 2.86457C3.5625 2.86457 3.19444 3.01388 2.89583 3.31249C2.59722 3.6111 2.44792 3.97916 2.44792 4.41666C2.44792 4.85416 2.59722 5.22221 2.89583 5.52082C3.19444 5.81943 3.5625 5.96874 4 5.96874ZM0.927083 7.33332C0.732639 7.33332 0.57125 7.26916 0.442917 7.14082C0.314306 7.01221 0.25 6.85068 0.25 6.65624V2.17707C0.25 1.98263 0.314306 1.82124 0.442917 1.69291C0.57125 1.5643 0.732639 1.49999 0.927083 1.49999H2.15625L2.72917 0.885407C2.79167 0.815962 2.86639 0.762073 2.95333 0.72374C3.04 0.685684 3.12847 0.666656 3.21875 0.666656H4.78125C4.87153 0.666656 4.96014 0.685684 5.04708 0.72374C5.13375 0.762073 5.20833 0.815962 5.27083 0.885407L5.84375 1.49999H7.07292C7.26736 1.49999 7.42889 1.5643 7.5575 1.69291C7.68583 1.82124 7.75 1.98263 7.75 2.17707V6.65624C7.75 6.85068 7.68583 7.01221 7.5575 7.14082C7.42889 7.26916 7.26736 7.33332 7.07292 7.33332H0.927083Z" fill="white"/>
</svg>
