<svg width="24" height="24" viewBox="0 0 24 24" fill="none" xmlns="http://www.w3.org/2000/svg">
<path d="M6.93262 21C5.90611 21 5.39285 21 5.00077 20.782C4.65589 20.5903 4.3755 20.2843 4.19977 19.908C4 19.4802 4 18.9201 4 17.8V6.2C4 5.07989 4 4.51984 4.19977 4.09202C4.3755 3.71569 4.65589 3.40973 5.00077 3.21799C5.39285 3 5.90611 3 6.93262 3H15.7305C16.757 3 17.2702 3 17.6623 3.21799C18.0072 3.40973 18.2876 3.71569 18.4633 4.09202C18.6631 4.51984 18.6631 5.0799 18.6631 6.2V7M7.66577 7H13.1644M7.66577 15H8.58222M7.66577 11H11.3315M10.5942 20.8945L11.7991 20.6347C12.4493 20.4945 12.7744 20.4244 13.0775 20.2952C13.3466 20.1806 13.6023 20.0317 13.8394 19.8516C14.1064 19.6486 14.3407 19.393 14.8094 18.8816L19.5276 13.7332C20.1575 13.0459 20.1575 11.9316 19.5276 11.2444C18.8978 10.5571 17.8766 10.5571 17.2468 11.2444L12.4479 16.4808C12.0088 16.96 11.7892 17.1996 11.6119 17.4712C11.4545 17.7123 11.3221 17.9717 11.2171 18.2447C11.0989 18.5522 11.0278 18.882 10.8857 19.5417L10.5942 20.8945Z" stroke="#949494" stroke-width="1.5" stroke-linecap="round" stroke-linejoin="round"/>
</svg>
