<svg width="21" height="20" viewBox="0 0 21 20" fill="none" xmlns="http://www.w3.org/2000/svg">
<g id="Component 106">
<g id="Group 796">
<path id="Vector" d="M13.576 3.77734L4.76123 12.6166L7.91317 15.7683L16.7279 6.92911L13.576 3.77734Z" fill="#FFC738"/>
<path id="Vector_2" d="M4.05786 13.3206L3.47021 15.0974L5.42014 17.0527L7.2098 16.4724L7.9132 15.767L4.76126 12.6152L4.05786 13.3206Z" fill="#F0F0F0"/>
<path id="Vector_3" d="M2.5 18.0004L5.42044 17.054L3.47051 15.0986L2.5 18.0004Z" fill="#707070"/>
<path id="Vector_4" d="M17.9835 3.14285L17.3514 2.51785C17.0219 2.1875 16.5678 2 16.0959 2C15.624 2 15.1699 2.1875 14.8405 2.51785L13.5762 3.77678L16.7281 6.93747L17.9835 5.66962C18.1527 5.49998 18.2774 5.30355 18.3664 5.08927C18.4554 4.87498 18.5 4.64284 18.5 4.40177C18.5 4.16963 18.4554 3.93749 18.3664 3.71428C18.2774 3.50892 18.1527 3.31249 17.9835 3.14285Z" fill="#F4868F"/>
</g>
</g>
</svg>
