<svg width="24" height="24" viewBox="0 0 24 24" fill="none" xmlns="http://www.w3.org/2000/svg">
<rect width="24" height="24" rx="12" fill="url(#paint0_linear_1421_881)"/>
<path d="M12 10.0319C11.3944 10.0508 10.5012 10.3025 10.5 11.0156C10.4987 11.7752 11.25 11.9999 12 11.9999C12.75 11.9999 13.5 12.1733 13.5 12.9843C13.5 13.5938 12.7548 13.8611 12 13.9495M12 10.0319C12.5138 10.0285 13.125 10.0319 13.5 10.1249M12 10.0319L12 9M12 13.9495C11.4 13.9495 11.25 13.9687 10.5 13.8749M12 13.9495V15M15.2466 6.56891C15.8007 6.58472 16.3501 6.80409 16.773 7.227C17.1959 7.64992 17.4152 8.1993 17.4311 8.75341C17.4467 9.30174 17.4545 9.5759 17.4706 9.63972C17.5051 9.77632 17.465 9.67969 17.5373 9.80064C17.571 9.85714 17.7594 10.0566 18.136 10.4553C18.5166 10.8583 18.75 11.4019 18.75 12C18.75 12.5981 18.5166 13.1417 18.136 13.5447C17.7594 13.9434 17.571 14.1429 17.5373 14.1994C17.465 14.3203 17.5051 14.2237 17.4706 14.3603C17.4545 14.4241 17.4467 14.6983 17.4311 15.2466C17.4152 15.8007 17.1959 16.3501 16.773 16.773C16.3501 17.1959 15.8007 17.4153 15.2466 17.4311C14.6982 17.4467 14.4241 17.4546 14.3603 17.4706C14.2237 17.5051 14.3203 17.4651 14.1993 17.5373C14.1428 17.571 13.9434 17.7594 13.5447 18.136C13.1417 18.5166 12.5981 18.75 12 18.75C11.4019 18.75 10.8583 18.5167 10.4554 18.136C10.0566 17.7594 9.85715 17.571 9.80065 17.5373C9.67969 17.4651 9.77633 17.5051 9.63972 17.4706C9.57591 17.4546 9.30169 17.4467 8.7534 17.4311C8.19929 17.4153 7.64989 17.1959 7.22698 16.773C6.80406 16.3501 6.58469 15.8007 6.56889 15.2466C6.55325 14.6982 6.54543 14.4241 6.52934 14.3603C6.49489 14.2237 6.53491 14.3203 6.46268 14.1993C6.42894 14.1428 6.24061 13.9434 5.86396 13.5446C5.48335 13.1416 5.25 12.5981 5.25 12C5.25 11.4019 5.48335 10.8584 5.86396 10.4554C6.24061 10.0566 6.42894 9.85717 6.46268 9.80067C6.53491 9.67971 6.49489 9.77634 6.52934 9.63974C6.54543 9.57593 6.55325 9.30176 6.56889 8.75344C6.58469 8.19932 6.80406 7.64992 7.22698 7.227C7.64989 6.80408 8.19929 6.58472 8.7534 6.56891C9.30174 6.55327 9.57591 6.54545 9.63972 6.52936C9.77633 6.49491 9.67969 6.53494 9.80065 6.4627C9.85715 6.42896 10.0566 6.24061 10.4554 5.86397C10.8583 5.48335 11.4019 5.25 12 5.25C12.5981 5.25 13.1417 5.48335 13.5447 5.86398C13.9434 6.24063 14.1428 6.42895 14.1993 6.4627C14.3203 6.53493 14.2237 6.49491 14.3603 6.52935C14.4241 6.54545 14.6982 6.55327 15.2466 6.56891Z" stroke="white" stroke-width="1.2" stroke-linecap="round" stroke-linejoin="round"/>
<defs>
<linearGradient id="paint0_linear_1421_881" x1="24" y1="24" x2="1.26949e-08" y2="24" gradientUnits="userSpaceOnUse">
<stop offset="0.019003" stop-color="#008FF5"/>
<stop offset="0.487763" stop-color="#00A5FD"/>
<stop offset="1" stop-color="#4AC0FF"/>
</linearGradient>
</defs>
</svg>
