<svg width="24" height="24" viewBox="0 0 24 24" fill="none" xmlns="http://www.w3.org/2000/svg">
<path d="M10.5306 4C9.23898 4 7.97636 4.38301 6.9024 5.10061C5.82845 5.8182 4.9914 6.83815 4.49712 8.03146C4.00283 9.22478 3.8735 10.5379 4.12549 11.8047C4.37747 13.0715 4.99945 14.2351 5.91278 15.1485C6.8261 16.0618 7.98974 16.6838 9.25656 16.9358C10.5234 17.1877 11.8365 17.0584 13.0298 16.5641C14.2231 16.0698 15.243 15.2328 15.9606 14.1588C16.6782 13.0849 17.0612 11.8223 17.0612 10.5306C17.0611 8.79863 16.373 7.1376 15.1483 5.9129C13.9236 4.68819 12.2626 4.00011 10.5306 4Z" stroke="#949494" stroke-width="1.5" stroke-miterlimit="10"/>
<path d="M15.4287 15.4287L20.0001 20.0001" stroke="#949494" stroke-width="1.5" stroke-miterlimit="10" stroke-linecap="round"/>
</svg>
