<svg width="21" height="20" viewBox="0 0 21 20" fill="none" xmlns="http://www.w3.org/2000/svg">
<path d="M17.1668 5.83317V16.6665C17.1668 17.1085 16.9912 17.5324 16.6787 17.845C16.3661 18.1576 15.9422 18.3332 15.5002 18.3332H5.50016C5.05814 18.3332 4.63421 18.1576 4.32165 17.845C4.00909 17.5324 3.8335 17.1085 3.8335 16.6665V3.33317C3.8335 2.89115 4.00909 2.4672 4.32165 2.15463C4.63421 1.84207 5.05814 1.6665 5.50016 1.6665H13.0002L17.1668 5.83317Z" fill="#9889F8"/>
<path d="M13.8333 5.83317H17.1667L13 1.6665V4.99984C13 5.22085 13.0878 5.4328 13.2441 5.58908C13.4003 5.74536 13.6123 5.83317 13.8333 5.83317Z" fill="#E3DFFE"/>
<path d="M14.2502 9.1665H6.75016C6.52005 9.1665 6.3335 9.35309 6.3335 9.58317V10.4165C6.3335 10.6466 6.52005 10.8332 6.75016 10.8332H14.2502C14.4802 10.8332 14.6668 10.6466 14.6668 10.4165V9.58317C14.6668 9.35309 14.4802 9.1665 14.2502 9.1665Z" fill="white"/>
<path d="M14.2502 12.5H6.75016C6.52005 12.5 6.3335 12.6866 6.3335 12.9167V13.75C6.3335 13.9801 6.52005 14.1667 6.75016 14.1667H14.2502C14.4802 14.1667 14.6668 13.9801 14.6668 13.75V12.9167C14.6668 12.6866 14.4802 12.5 14.2502 12.5Z" fill="white"/>
</svg>
