<svg width="15" height="14" viewBox="0 0 15 14" fill="none" xmlns="http://www.w3.org/2000/svg">
<path d="M5.19586 10.4017C4.30403 10.4017 3.5813 11.0952 3.5813 11.9509C3.5813 12.8066 4.30403 13.5001 5.19586 13.5001C6.08769 13.5001 6.81041 12.8066 6.81041 11.9509C6.81041 11.0952 6.08769 10.4017 5.19586 10.4017ZM5.19586 12.7221C4.75205 12.7221 4.39209 12.3767 4.39209 11.9509C4.39209 11.5251 4.75205 11.1797 5.19586 11.1797C5.63967 11.1797 5.99963 11.5251 5.99963 11.9509C5.99963 12.3767 5.63967 12.7221 5.19586 12.7221Z" fill="white"/>
<path d="M11.5351 10.4017C10.6432 10.4017 9.9205 11.0952 9.9205 11.9509C9.9205 12.8066 10.6432 13.5001 11.5351 13.5001C12.4269 13.5001 13.1496 12.8066 13.1496 11.9509C13.1496 11.0952 12.4269 10.4017 11.5351 10.4017ZM11.5351 12.7221C11.0912 12.7221 10.7313 12.3767 10.7313 11.9509C10.7313 11.5251 11.0912 11.1797 11.5351 11.1797C11.9789 11.1797 12.3388 11.5251 12.3388 11.9509C12.3388 12.3767 11.9789 12.7221 11.5351 12.7221Z" fill="white"/>
<path d="M14.1259 3.29967C14.1259 3.29563 14.1255 3.29159 14.1252 3.28755C14.1252 3.28082 14.1248 3.27409 14.1241 3.26735C14.1234 3.26062 14.1227 3.25423 14.1216 3.24783C14.1209 3.24211 14.1199 3.23605 14.1188 3.23033C14.1174 3.22292 14.1157 3.21585 14.1139 3.20844C14.1129 3.20373 14.1115 3.19902 14.1101 3.19464C14.1076 3.18656 14.1052 3.17882 14.1024 3.17108C14.1009 3.16738 14.0995 3.16367 14.0981 3.15997C14.095 3.15189 14.0911 3.14381 14.0873 3.13607C14.0855 3.1327 14.0841 3.12967 14.0824 3.12631C14.0781 3.11856 14.0739 3.11082 14.0694 3.10342C14.0673 3.10005 14.0655 3.09702 14.0634 3.09365C14.0588 3.08658 14.0539 3.07951 14.0487 3.07278C14.0462 3.06942 14.0434 3.06571 14.0406 3.06235C14.0357 3.05629 14.0304 3.05023 14.0252 3.04451C14.0217 3.0408 14.0185 3.0371 14.015 3.03373C14.0097 3.02835 14.0045 3.0233 13.9989 3.01825C13.995 3.01455 13.9908 3.01118 13.9866 3.00748C13.981 3.00276 13.9753 2.99839 13.9694 2.99401C13.9648 2.99064 13.9606 2.98761 13.9561 2.98425C13.9497 2.97987 13.9434 2.97617 13.9371 2.97213C13.9325 2.96944 13.9283 2.96674 13.9238 2.96439C13.9164 2.96035 13.909 2.95664 13.9017 2.95294C13.8975 2.95092 13.8936 2.94924 13.8894 2.94722C13.881 2.94352 13.8722 2.94015 13.8634 2.93712C13.8599 2.93577 13.8564 2.93476 13.8529 2.93342C13.8434 2.93039 13.8336 2.92769 13.8238 2.92534C13.8217 2.92466 13.8196 2.92399 13.8171 2.92332C13.8161 2.92332 13.8147 2.92298 13.8136 2.92264C13.8045 2.92063 13.795 2.91894 13.7855 2.9176C13.781 2.91692 13.7764 2.91625 13.7715 2.91558C13.7638 2.91457 13.7564 2.91423 13.7487 2.91356C13.7424 2.91322 13.7357 2.91288 13.7294 2.91255C13.7273 2.91255 13.7248 2.91255 13.7227 2.91255H3.39968C3.36775 2.91255 3.33688 2.91659 3.30706 2.92332L2.84956 1.09844C2.83272 0.937197 2.71239 0.805574 2.55381 0.764169C2.54925 0.762822 2.54469 0.761812 2.54012 0.760802C2.53451 0.759456 2.5289 0.758446 2.52328 0.757436C2.49066 0.75104 2.45662 0.748684 2.42259 0.750703H0.903464C0.680682 0.750367 0.5 0.923732 0.5 1.13749C0.5 1.35125 0.680682 1.52462 0.903464 1.52462H2.12649L3.94839 8.7918C3.99821 8.99041 4.19924 9.11564 4.40623 9.08299H12.4327C12.4352 9.08299 12.438 9.08299 12.4404 9.08265C12.6243 9.08433 12.7913 8.96517 12.8362 8.78642L14.115 3.39056C14.115 3.39056 14.1153 3.38787 14.1157 3.38652C14.1178 3.37811 14.1192 3.36969 14.1206 3.36127C14.1213 3.35656 14.1223 3.35151 14.123 3.3468C14.1241 3.33973 14.1245 3.33266 14.1248 3.32559C14.1252 3.3192 14.1259 3.3128 14.1259 3.30674C14.1259 3.30472 14.1259 3.30236 14.1259 3.30034V3.29967ZM13.2168 3.6868L12.1215 8.3084H4.65708L3.49861 3.6868H13.2168V3.6868Z" fill="white"/>
</svg>
