<svg width="20" height="20" viewBox="0 0 20 20" fill="none" xmlns="http://www.w3.org/2000/svg">
<path d="M5.83739 18.9849C5.2705 19.4263 4.70361 19.4481 4.13672 19.0503C3.56983 18.6536 3.39081 18.1315 3.59966 17.4841L5.16607 12.2755L1.31719 9.49466C0.720462 9.08268 0.534283 8.55299 0.758652 7.9056C0.981827 7.2582 1.45145 6.9345 2.16752 6.9345H7.001L8.61216 1.68174C8.70167 1.32862 8.88069 1.07083 9.14921 0.908396C9.41774 0.747135 9.70118 0.666504 9.99955 0.666504C10.2979 0.666504 10.5814 0.747135 10.8499 0.908396C11.1184 1.07083 11.2974 1.32862 11.3869 1.68174L12.9981 6.9345H17.8316C18.5476 6.9345 19.0179 7.2582 19.2422 7.9056C19.4654 8.55299 19.2786 9.08268 18.6819 9.49466L14.833 12.2755L16.3994 17.4841C16.6083 18.1315 16.4293 18.6536 15.8624 19.0503C15.2955 19.4481 14.7286 19.4263 14.1617 18.9849L9.99955 15.8951L5.83739 18.9849Z" fill="#DFDFDF"/>
</svg>
