<svg width="34" height="34" viewBox="0 0 34 34" fill="none" xmlns="http://www.w3.org/2000/svg">
<path d="M9.71523 32.7239C8.72317 33.4964 7.73111 33.5345 6.73906 32.8383C5.747 32.1441 5.43372 31.2305 5.79921 30.0976L8.54042 20.9825L1.80488 16.116C0.76061 15.395 0.434797 14.468 0.827443 13.3351C1.218 12.2021 2.03984 11.6357 3.29296 11.6357H11.7515L14.5711 2.44335C14.7277 1.82538 15.041 1.37426 15.5109 1.09C15.9808 0.807791 16.4769 0.666687 16.999 0.666687C17.5211 0.666687 18.0172 0.807791 18.4871 1.09C18.957 1.37426 19.2703 1.82538 19.4269 2.44335L22.2465 11.6357H30.705C31.9582 11.6357 32.7811 12.2021 33.1737 13.3351C33.5643 14.468 33.2374 15.395 32.1931 16.116L25.4576 20.9825L28.1988 30.0976C28.5643 31.2305 28.251 32.1441 27.259 32.8383C26.2669 33.5345 25.2748 33.4964 24.2828 32.7239L16.999 27.3167L9.71523 32.7239Z" fill="#FA7D96"/>
</svg>
