<svg width="190" height="146" viewBox="0 0 190 146" fill="none" xmlns="http://www.w3.org/2000/svg">
<path d="M137.445 22.8325C132.084 20.3597 126.289 18.9676 120.39 18.7355C114.491 18.5035 108.604 19.4361 103.066 21.4802C97.5274 23.5242 92.4456 26.6396 88.1105 30.6485C83.7755 34.6575 80.2721 39.4814 77.8005 44.8449C75.3289 50.2083 73.9374 56.0063 73.7055 61.9078C73.4735 67.8093 74.4057 73.6987 76.4488 79.2398C78.4919 84.7809 81.6059 89.8651 85.6129 94.2021C89.62 98.5392 94.4417 102.044 99.8027 104.517L118.624 63.6747L137.445 22.8325Z" fill="#FFD700" fill-opacity="0.1"/>
<path d="M148.883 14.2548C154.244 16.7276 159.066 20.2325 163.073 24.5696C167.08 28.9066 170.194 33.9909 172.237 39.5319C174.28 45.073 175.212 50.9624 174.98 56.8639C174.748 62.7654 173.357 68.5634 170.885 73.9269C168.414 79.2904 164.91 84.1143 160.575 88.1232C156.24 92.1321 151.158 95.2475 145.62 97.2916C140.081 99.3356 134.195 100.268 128.296 100.036C122.397 99.8042 116.602 98.412 111.241 95.9392L130.062 55.097L148.883 14.2548Z" fill="#FFD700" fill-opacity="0.1"/>
<path d="M93.0441 36.7595C92.035 35.788 90.6557 35.7528 90.5137 35.7528C90.5137 35.7528 90.5036 35.7528 90.4985 35.7528H90.4833C90.3413 35.7528 88.962 35.7729 87.9479 36.7394L33.035 75.1817L89.6821 109.365L90.9904 109.37L147.643 75.2068L93.0441 36.7595Z" fill="url(#paint0_linear_306_20625)"/>
<path fill-rule="evenodd" clip-rule="evenodd" d="M133.434 39.7203C133.502 39.9655 133.57 40.2093 133.638 40.4545C133.413 40.6067 133.255 40.8087 133.166 41.0664C132.902 41.8196 133.197 42.8689 133.822 43.3661C134.023 43.5265 134.245 43.644 134.518 43.6137C134.764 44.498 135.01 45.3808 135.256 46.2651C134.94 46.4112 134.809 46.6928 134.734 47.0009C134.612 47.502 134.691 47.9896 134.903 48.4531C135.047 48.7676 135.247 49.0464 135.547 49.2323C135.719 49.3387 135.897 49.4558 136.12 49.368C136.371 50.271 136.623 51.174 136.874 52.0756C136.635 52.1104 136.519 52.3008 136.459 52.4851C136.366 52.7733 136.205 52.9529 135.911 53.0215C135.864 53.0329 135.825 53.0655 135.779 53.0873C132.85 54.5088 131.556 58.0577 132.977 60.9915C134.024 63.1537 135.799 64.2907 138.201 64.4497C138.638 64.4784 139.08 64.4187 139.532 64.398C139.527 64.4926 139.519 64.5974 139.515 64.7024C139.494 65.3328 139.674 65.8966 140.11 66.3619C140.335 66.6013 140.598 66.7881 140.958 66.7447C141.204 67.629 141.45 68.5118 141.696 69.3961C141.381 69.5561 141.235 69.8402 141.171 70.1622C141.027 70.8916 141.204 71.5449 141.688 72.1121C141.918 72.3826 142.211 72.5425 142.574 72.5557C142.821 73.4399 143.066 74.3228 143.313 75.2071C143.225 75.2638 143.107 75.301 143.058 75.3814C142.946 75.5597 142.83 75.7501 142.782 75.9515C142.536 76.9636 143.08 77.9818 144.072 78.3682C144.09 78.5156 144.116 78.6776 144.125 78.8397C144.164 79.5561 144.087 80.2576 143.807 80.9266C143.571 81.4888 143.224 81.9605 142.67 82.2577C142.605 82.2927 142.56 82.3625 142.505 82.4181C137.43 83.8177 132.355 85.2174 127.28 86.6171C127.082 86.1002 126.881 85.5824 126.683 85.0655C126.358 84.2199 126.037 83.375 125.712 82.5294C125.66 82.3931 125.592 82.2645 125.529 82.131C125.55 82.5478 125.618 82.9499 125.687 83.3502C125.809 84.0499 125.93 84.7496 126.053 85.4489C126.137 85.9273 126.227 86.4059 126.315 86.8834C105.637 92.5862 84.9584 98.2894 64.281 103.992C64.2187 103.971 64.1555 103.929 64.0938 103.932C63.341 103.964 62.7266 103.65 62.1788 103.177C61.6702 102.738 61.2901 102.198 60.9965 101.599C60.8771 101.355 60.7703 101.107 60.6567 100.862C60.6462 100.824 60.6358 100.787 60.6254 100.749C60.9527 100.667 61.1322 100.429 61.2382 100.136C61.4256 99.6181 61.3849 99.1012 61.1779 98.5991C61.0347 98.2534 60.8339 97.9422 60.5123 97.7311C60.2808 97.579 60.0353 97.4557 59.7458 97.5899C59.5048 96.7244 59.2642 95.8603 59.0232 94.9947C59.3042 94.8691 59.5028 94.6668 59.6188 94.3816C59.9392 93.5942 59.6188 92.4602 58.9271 91.9644C58.687 91.7929 58.4269 91.7016 58.1265 91.7797C57.8855 90.9142 57.6449 90.0501 57.4039 89.1846C57.6956 89.1088 57.8671 88.9046 57.9847 88.647C58.1125 88.3648 58.1635 88.0649 58.1183 87.762C58.0703 87.4491 57.9862 87.1414 57.9123 86.803C57.9595 86.776 58.033 86.7309 58.1076 86.6901C61.1413 85.0705 62.2766 81.2951 60.5696 78.3269C59.3385 76.1858 57.4277 75.1595 54.9452 75.2026C54.7178 75.2063 54.5742 75.1621 54.439 74.9632C54.1706 74.5666 53.7908 74.3483 53.2883 74.403C53.0473 73.5374 52.8064 72.6719 52.5658 71.8078C52.8928 71.7689 53.0455 71.5311 53.1618 71.2691C53.5086 70.4869 53.1834 69.3246 52.4833 68.8265C52.2454 68.6575 51.9855 68.5553 51.6862 68.6487C51.4452 67.7832 51.2042 66.9176 50.9636 66.0536C51.3875 65.9134 51.5693 65.5774 51.6456 65.1774C51.7714 64.5229 51.6215 63.9227 51.2225 63.3882C50.9365 63.0072 50.5728 62.7736 50.068 62.8367C50.0575 62.7992 50.0471 62.7617 50.0366 62.7242C50.0345 62.6378 50.04 62.5509 50.0306 62.4665C50.0087 62.2923 49.9704 62.1211 49.9547 61.9468C49.8893 61.2007 49.9562 60.4692 50.2293 59.7648C50.409 59.3036 50.6708 58.8959 51.0633 58.5811C51.1669 58.4981 51.2773 58.4226 51.385 58.3432C72.1393 52.6192 92.8922 46.8956 113.647 41.1716C113.748 41.4123 113.858 41.6507 113.951 41.8953C114.277 42.739 114.597 43.5843 114.922 44.4281C114.974 44.5644 115.043 44.693 115.105 44.8265C115.122 44.651 115.108 44.4872 115.078 44.326C114.92 43.4362 114.756 42.5461 114.601 41.6555C114.558 41.4173 114.533 41.1757 114.499 40.9364C119.65 39.5159 124.8 38.0955 129.95 36.675C130.104 36.687 130.26 36.6921 130.412 36.714C130.932 36.7896 131.376 37.0273 131.778 37.3515C132.301 37.7757 132.697 38.3034 133.006 38.897C133.153 39.1685 133.293 39.4453 133.434 39.7203Z" fill="white"/>
<path fill-rule="evenodd" clip-rule="evenodd" d="M133.434 39.7203C133.502 39.9655 133.57 40.2093 133.638 40.4545C133.413 40.6067 133.255 40.8087 133.166 41.0664C132.902 41.8196 133.197 42.8689 133.822 43.3661C134.023 43.5265 134.245 43.644 134.518 43.6137C134.764 44.498 135.01 45.3808 135.256 46.2651C134.94 46.4112 134.809 46.6928 134.734 47.0009C134.612 47.502 134.691 47.9896 134.903 48.4531C135.047 48.7676 135.247 49.0464 135.547 49.2323C135.719 49.3387 135.897 49.4558 136.12 49.368C136.371 50.271 136.623 51.174 136.874 52.0756C136.635 52.1104 136.519 52.3008 136.459 52.4851C136.366 52.7733 136.205 52.9529 135.911 53.0215C135.864 53.0329 135.825 53.0655 135.779 53.0873C132.85 54.5088 131.556 58.0577 132.977 60.9915C134.024 63.1537 135.799 64.2907 138.201 64.4497C138.638 64.4784 139.08 64.4187 139.532 64.398C139.527 64.4926 139.519 64.5974 139.515 64.7024C139.494 65.3328 139.674 65.8966 140.11 66.3619C140.335 66.6013 140.598 66.7881 140.958 66.7447C141.204 67.629 141.45 68.5118 141.696 69.3961C141.381 69.5561 141.235 69.8402 141.171 70.1622C141.027 70.8916 141.204 71.5449 141.688 72.1121C141.918 72.3826 142.211 72.5425 142.574 72.5557C142.821 73.4399 143.066 74.3228 143.313 75.2071C143.225 75.2638 143.107 75.301 143.058 75.3814C142.946 75.5597 142.83 75.7501 142.782 75.9515C142.536 76.9636 143.08 77.9818 144.072 78.3682C144.09 78.5156 144.116 78.6776 144.125 78.8397C144.164 79.5561 144.087 80.2576 143.807 80.9266C143.571 81.4888 143.224 81.9605 142.67 82.2577C142.605 82.2927 142.56 82.3625 142.505 82.4181C137.43 83.8177 132.355 85.2174 127.28 86.6171C127.082 86.1002 126.881 85.5824 126.683 85.0655C126.358 84.2199 126.037 83.375 125.712 82.5294C125.66 82.3931 125.592 82.2645 125.529 82.131C125.55 82.5478 125.618 82.9499 125.687 83.3502C125.809 84.0499 125.93 84.7496 126.053 85.4489C126.137 85.9273 126.227 86.4059 126.315 86.8834C105.637 92.5862 84.9584 98.2894 64.281 103.992C64.2187 103.971 64.1555 103.929 64.0938 103.932C63.341 103.964 62.7266 103.65 62.1788 103.177C61.6702 102.738 61.2901 102.198 60.9965 101.599C60.8771 101.355 60.7703 101.107 60.6567 100.862C60.6462 100.824 60.6358 100.787 60.6254 100.749C60.9527 100.667 61.1322 100.429 61.2382 100.136C61.4256 99.6181 61.3849 99.1012 61.1779 98.5991C61.0347 98.2534 60.8339 97.9422 60.5123 97.7311C60.2808 97.579 60.0353 97.4557 59.7458 97.5899C59.5048 96.7244 59.2642 95.8603 59.0232 94.9947C59.3042 94.8691 59.5028 94.6668 59.6188 94.3816C59.9392 93.5942 59.6188 92.4602 58.9271 91.9644C58.687 91.7929 58.4269 91.7016 58.1265 91.7797C57.8855 90.9142 57.6449 90.0501 57.4039 89.1846C57.6956 89.1088 57.8671 88.9046 57.9847 88.647C58.1125 88.3648 58.1635 88.0649 58.1183 87.762C58.0703 87.4491 57.9862 87.1414 57.9123 86.803C57.9595 86.776 58.033 86.7309 58.1076 86.6901C61.1413 85.0705 62.2766 81.2951 60.5696 78.3269C59.3385 76.1858 57.4277 75.1595 54.9452 75.2026C54.7178 75.2063 54.5742 75.1621 54.439 74.9632C54.1706 74.5666 53.7908 74.3483 53.2883 74.403C53.0473 73.5374 52.8064 72.6719 52.5658 71.8078C52.8928 71.7689 53.0455 71.5311 53.1618 71.2691C53.5086 70.4869 53.1834 69.3246 52.4833 68.8265C52.2454 68.6575 51.9855 68.5553 51.6862 68.6487C51.4452 67.7832 51.2042 66.9176 50.9636 66.0536C51.3875 65.9134 51.5693 65.5774 51.6456 65.1774C51.7714 64.5229 51.6215 63.9227 51.2225 63.3882C50.9365 63.0072 50.5728 62.7736 50.068 62.8367C50.0575 62.7992 50.0471 62.7617 50.0366 62.7242C50.0345 62.6378 50.04 62.5509 50.0306 62.4665C50.0087 62.2923 49.9704 62.1211 49.9547 61.9468C49.8893 61.2007 49.9562 60.4692 50.2293 59.7648C50.409 59.3036 50.6708 58.8959 51.0633 58.5811C51.1669 58.4981 51.2773 58.4226 51.385 58.3432C72.1393 52.6192 92.8922 46.8956 113.647 41.1716C113.748 41.4123 113.858 41.6507 113.951 41.8953C114.277 42.739 114.597 43.5843 114.922 44.4281C114.974 44.5644 115.043 44.693 115.105 44.8265C115.122 44.651 115.108 44.4872 115.078 44.326C114.92 43.4362 114.756 42.5461 114.601 41.6555C114.558 41.4173 114.533 41.1757 114.499 40.9364C119.65 39.5159 124.8 38.0955 129.95 36.675C130.104 36.687 130.26 36.6921 130.412 36.714C130.932 36.7896 131.376 37.0273 131.778 37.3515C132.301 37.7757 132.697 38.3034 133.006 38.897C133.153 39.1685 133.293 39.4453 133.434 39.7203Z" fill="url(#paint1_linear_306_20625)"/>
<path d="M76.9928 83.0911C80.1431 82.2458 81.7842 80.1473 81.1262 77.695C80.6758 76.0161 79.4275 75.0568 77.6787 75.0205C78.9191 74.1416 79.4367 72.8299 78.9927 71.2504C78.4143 69.0194 76.1317 67.9736 73.2832 68.7378C71.4346 69.2338 69.7101 70.3436 68.8792 71.6181L70.4008 73.5961C71.418 72.4131 72.583 71.5546 73.7149 71.2509C74.9976 70.9067 75.8677 71.3608 76.1612 72.455C76.47 73.6057 75.8723 74.3929 74.2877 74.818L72.6088 75.2685L73.2314 77.5888L75.231 77.0523C76.891 76.6069 77.7597 76.9805 78.0836 78.1878C78.4227 79.4517 77.8729 80.2665 76.194 80.717C74.949 81.051 73.4817 80.8583 72.0089 80.3434L71.6629 82.8224C73.0253 83.5287 75.0686 83.6073 76.9928 83.0911ZM84.7174 84.5978L86.7924 84.0411L87.1135 77.6254L83.9632 78.4707L84.7174 84.5978ZM94.2207 78.4889C97.503 77.6083 98.7186 74.4511 97.5039 69.9237C96.2892 65.3963 93.6564 63.2716 90.3741 64.1523C87.0917 65.0329 85.8762 68.1902 87.0909 72.7175C88.3056 77.2449 90.9384 79.3696 94.2207 78.4889ZM90.0903 71.9128C89.2501 68.7813 89.5409 67.2271 91.0877 66.8121C92.6346 66.3971 93.6643 67.597 94.5045 70.7284C95.3396 73.841 95.0539 75.4141 93.5071 75.8291C91.9602 76.2441 90.9254 75.0254 90.0903 71.9128ZM106.067 75.3104C109.35 74.4298 110.565 71.2725 109.35 66.7452C108.136 62.2178 105.503 60.0931 102.221 60.9737C98.9384 61.8544 97.7228 65.0116 98.9375 69.539C100.152 74.0664 102.785 76.1911 106.067 75.3104ZM101.937 68.7343C101.097 65.6028 101.388 64.0486 102.934 63.6336C104.481 63.2185 105.511 64.4185 106.351 67.5499C107.186 70.6625 106.901 72.2356 105.354 72.6506C103.807 73.0656 102.772 71.8468 101.937 68.7343ZM117.914 72.1319C121.196 71.2512 122.412 68.094 121.197 63.5666C119.982 59.0393 117.35 56.9146 114.067 57.7952C110.785 58.6759 109.569 61.8331 110.784 66.3605C111.999 70.8879 114.632 73.0126 117.914 72.1319ZM113.784 65.5557C112.943 62.4243 113.234 60.8701 114.781 60.4551C116.328 60.04 117.358 61.24 118.198 64.3714C119.033 67.484 118.747 69.0571 117.2 69.4721C115.653 69.8871 114.619 68.6683 113.784 65.5557Z" fill="#D5F0FF"/>
<rect width="52.2156" height="15.5437" rx="7.77185" transform="matrix(0.916195 0.400733 -0.403487 0.914985 78.2717 76)" fill="#00A5FD"/>
<path d="M89.7852 86.5272L86.0093 90.8584L85.1628 90.4881L85.5731 86.5798C85.5796 86.4834 85.5966 86.3694 85.6241 86.238C85.5847 86.2897 85.5468 86.338 85.5104 86.3827C85.474 86.4275 85.438 86.4683 85.4024 86.5051L82.78 89.4459L81.9299 89.0741L82.5809 83.3761L83.3647 83.719C83.446 83.7545 83.5047 83.8036 83.5408 83.8663C83.5802 83.9277 83.5949 83.9948 83.5849 84.0677L83.1189 87.4427C83.1049 87.5248 83.0866 87.6133 83.0641 87.7083C83.045 87.802 83.0238 87.9003 83.0006 88.0032C83.062 87.9142 83.122 87.8315 83.1806 87.7551C83.2416 87.6797 83.3011 87.6106 83.3593 87.5478L85.6717 84.9804C85.7137 84.9353 85.7711 84.9025 85.8439 84.8819C85.919 84.8624 85.9961 84.8699 86.075 84.9044L86.3502 85.0248C86.4315 85.0603 86.4891 85.1089 86.5228 85.1706C86.5566 85.2323 86.5725 85.2999 86.5705 85.3735L86.2334 88.8049C86.2189 88.9696 86.1901 89.1542 86.147 89.3588C86.2578 89.1893 86.3643 89.0387 86.4668 88.907L88.6468 86.2816C88.6862 86.2299 88.7429 86.1955 88.817 86.1782C88.8935 86.162 88.9711 86.1711 89.0501 86.2057L89.7852 86.5272Z" fill="white"/>
<path d="M91.017 87.9514L90.4037 89.3422L92.1665 90.1132L91.8499 90.8312L90.0871 90.0602L89.4615 91.4788L91.6981 92.457L91.3692 93.2027L88.1921 91.8131L90.4037 86.7977L93.5809 88.1874L93.2536 88.9296L91.017 87.9514Z" fill="white"/>
<path d="M95.49 94.0866L95.1504 94.8566L92.1997 93.566L94.4114 88.5506L95.3485 88.9605L93.4764 93.2059L95.49 94.0866Z" fill="white"/>
<path d="M99.6235 95.4022C99.6746 95.4245 99.7112 95.464 99.7333 95.5206L99.9267 96.0809C99.6112 96.2436 99.2741 96.3264 98.9153 96.3295C98.5589 96.3336 98.1717 96.2442 97.7536 96.0614C97.3797 95.8978 97.071 95.6869 96.8275 95.4287C96.5863 95.1715 96.41 94.8834 96.2986 94.5644C96.1872 94.2453 96.1439 93.9037 96.1688 93.5394C96.1959 93.1762 96.2916 92.8085 96.4558 92.4362C96.622 92.0593 96.8343 91.7412 97.0927 91.4818C97.3522 91.2202 97.641 91.0238 97.9593 90.8927C98.2798 90.7626 98.6197 90.7016 98.9791 90.7098C99.3394 90.7157 99.7042 90.7994 100.073 90.961C100.44 91.1215 100.739 91.3238 100.969 91.568C101.202 91.8132 101.375 92.0765 101.489 92.3581L100.985 92.6545C100.954 92.6742 100.919 92.6878 100.879 92.6954C100.842 92.704 100.798 92.6971 100.747 92.6748C100.712 92.6596 100.68 92.6346 100.651 92.5998C100.623 92.5627 100.594 92.5207 100.562 92.4736C100.531 92.4243 100.494 92.3696 100.451 92.3095C100.408 92.2494 100.355 92.1887 100.29 92.1275C100.227 92.0639 100.148 92.0005 100.054 91.9373C99.9636 91.8728 99.8521 91.8116 99.7197 91.7537C99.4944 91.6552 99.2699 91.6052 99.0461 91.6039C98.8256 91.6012 98.6144 91.6468 98.4124 91.7404C98.2114 91.8318 98.0253 91.9711 97.8541 92.1583C97.684 92.3431 97.5372 92.5754 97.4138 92.8552C97.2894 93.1373 97.2183 93.4055 97.2004 93.6597C97.1848 93.9149 97.2124 94.1476 97.2831 94.3578C97.3539 94.5681 97.4643 94.7543 97.6144 94.9165C97.7655 95.0764 97.9479 95.203 98.1616 95.2965C98.2893 95.3524 98.4073 95.3957 98.5157 95.4265C98.6263 95.4584 98.7312 95.478 98.8304 95.4856C98.9319 95.4941 99.0312 95.492 99.1282 95.4793C99.2286 95.4653 99.3324 95.4403 99.4396 95.4045C99.472 95.3938 99.5035 95.3883 99.5342 95.3879C99.5658 95.3852 99.5956 95.39 99.6235 95.4022Z" fill="white"/>
<path d="M106.05 96.6326C105.888 97.0002 105.676 97.3144 105.414 97.575C105.156 97.8343 104.865 98.0297 104.541 98.1611C104.217 98.2925 103.869 98.3543 103.499 98.3467C103.129 98.3367 102.753 98.248 102.37 98.0803C101.989 97.9137 101.67 97.6983 101.412 97.434C101.156 97.1674 100.965 96.8703 100.841 96.5429C100.719 96.2164 100.665 95.8702 100.68 95.5042C100.695 95.1359 100.784 94.7679 100.946 94.4003C101.108 94.0326 101.32 93.7197 101.581 93.4613C101.842 93.2007 102.135 93.0047 102.459 92.8733C102.785 92.7429 103.133 92.6827 103.503 92.6927C103.874 92.7003 104.249 92.7874 104.63 92.954C104.886 93.0658 105.113 93.201 105.312 93.3596C105.511 93.516 105.681 93.6896 105.822 93.8806C105.963 94.0692 106.074 94.2735 106.154 94.4934C106.237 94.7121 106.29 94.9391 106.311 95.1744C106.332 95.4097 106.32 95.65 106.275 95.8954C106.233 96.1417 106.158 96.3875 106.05 96.6326ZM105.092 96.2135C105.213 95.9384 105.285 95.6759 105.306 95.426C105.329 95.1738 105.305 94.9415 105.235 94.7289C105.166 94.5164 105.05 94.3265 104.888 94.1592C104.729 93.9929 104.526 93.856 104.28 93.7483C104.034 93.6406 103.794 93.5841 103.561 93.5787C103.33 93.5743 103.112 93.6179 102.905 93.7096C102.701 93.8022 102.513 93.9421 102.342 94.1293C102.171 94.3142 102.026 94.5442 101.904 94.8193C101.783 95.0945 101.711 95.3581 101.689 95.6103C101.667 95.8602 101.691 96.0914 101.761 96.3039C101.834 96.5152 101.95 96.7039 102.11 96.8702C102.271 97.0375 102.475 97.1749 102.721 97.2826C102.968 97.3903 103.206 97.4463 103.437 97.4507C103.67 97.4561 103.888 97.4137 104.091 97.3233C104.296 97.2306 104.483 97.0919 104.653 96.907C104.824 96.7199 104.971 96.4887 105.092 96.2135Z" fill="white"/>
<path d="M113.441 96.8741L111.23 101.889L110.404 101.528L111.832 98.2888C111.89 98.1593 111.958 98.0224 112.038 97.8782L109.26 100.06C109.128 100.165 108.988 100.185 108.839 100.12L108.707 100.062C108.558 99.9969 108.478 99.8804 108.466 99.7125L108.187 96.1811C108.16 96.2604 108.133 96.3381 108.105 96.4141C108.077 96.4901 108.049 96.5594 108.021 96.6218L106.593 99.8613L105.767 99.5002L107.979 94.4849L108.686 94.7942C108.728 94.8125 108.763 94.8294 108.792 94.8449C108.822 94.8604 108.846 94.8779 108.865 94.8973C108.886 94.9177 108.902 94.9424 108.911 94.9713C108.923 95.0013 108.93 95.0376 108.934 95.0804L109.214 98.5254C109.221 98.6166 109.223 98.7087 109.221 98.8015C109.221 98.8954 109.219 98.991 109.215 99.0885C109.285 99.0172 109.355 98.9498 109.425 98.8864C109.495 98.8207 109.566 98.7595 109.639 98.7028L112.351 96.5752C112.385 96.5487 112.417 96.5296 112.447 96.5179C112.477 96.5062 112.506 96.5008 112.533 96.5018C112.563 96.5037 112.593 96.5101 112.624 96.521C112.656 96.5319 112.692 96.5465 112.734 96.5647L113.441 96.8741Z" fill="white"/>
<path d="M115.178 98.5193L114.565 99.9101L116.328 100.681L116.011 101.399L114.248 100.628L113.623 102.047L115.859 103.025L115.531 103.771L112.353 102.381L114.565 97.3657L117.742 98.7553L117.415 99.4975L115.178 98.5193Z" fill="white"/>
<path d="M84.7329 100.274L33.0148 75.1914V133.607C33.0148 133.607 33.0858 136.195 35.6212 135.923L85.4834 101.744L84.7329 100.274Z" fill="url(#paint2_linear_306_20625)"/>
<path d="M95.8332 100.274L147.653 75.1914V133.607C147.653 133.607 147.582 136.195 145.046 135.923L95.1841 101.744L95.8332 100.274Z" fill="url(#paint3_linear_306_20625)"/>
<path d="M91.8323 96.9575C90.8587 95.9809 89.525 95.9507 89.3881 95.9507C89.3881 95.9507 89.378 95.9507 89.3729 95.9507H89.3577C89.2208 95.9507 87.8922 95.9809 86.9135 96.9575L34.8353 135.923H88.7441H90.0068H144.646L91.8323 96.9575Z" fill="#9AD4FC" fill-opacity="0.21"/>
<path d="M90.0879 96.4943C89.951 96.4943 89.5656 97.0027 88.592 97.9792L36.103 135.923H90.742H92.0047H145.913L93.3586 96.902C93.3586 96.902 91.4722 96.2426 90.8485 96.2979C90.2197 96.3584 90.0879 96.4943 90.0879 96.4943Z" fill="white"/>
<path d="M92.7906 97.2492C91.817 96.2828 90.4833 96.2526 90.3464 96.2526C90.3464 96.2526 90.3363 96.2526 90.3312 96.2526H90.316C90.1791 96.2526 88.8505 96.2828 87.8718 97.2492L35.0685 135.923H89.7075H90.9701H145.609L92.7906 97.2492Z" fill="url(#paint4_linear_306_20625)"/>
<g clip-path="url(#clip0_306_20625)">
<path d="M70.5576 116.782L72.1597 116.782C72.2052 116.782 72.2462 116.811 72.2625 116.856L74.0926 121.918C74.1286 122.018 74.2622 122.018 74.2982 121.918L76.1149 116.856C76.1312 116.811 76.1721 116.781 76.2176 116.781L77.8198 116.781C77.8962 116.781 77.9495 116.861 77.9226 116.937L75.1332 124.823C75.117 124.868 75.0754 124.899 75.0294 124.898L73.3458 124.898C73.3003 124.898 73.2598 124.849 73.2441 124.804L70.4542 116.938C70.4273 116.862 70.4806 116.782 70.557 116.782L70.5576 116.782Z" fill="#00A5FD" fill-opacity="0.4"/>
<path d="M80.1831 117.482C80.56 117.086 80.56 116.443 80.1831 116.047C79.8061 115.651 79.1948 115.651 78.8179 116.047C78.4409 116.443 78.4409 117.086 78.8179 117.482C79.1948 117.879 79.8061 117.879 80.1831 117.482Z" fill="#00A5FD" fill-opacity="0.4"/>
<path d="M83.2048 120.872L82.226 120.872C81.8177 120.872 81.4869 121.22 81.4869 121.649C81.4869 122.078 81.8177 122.426 82.226 122.426L83.2048 122.426L83.2048 120.873L83.2048 120.872Z" fill="#00A5FD" fill-opacity="0.4"/>
<path d="M83.1783 122.912L84.1572 122.912C84.5654 122.912 84.8962 122.564 84.8962 122.135C84.8962 121.706 84.5654 121.358 84.1572 121.358L83.1783 121.358L83.1783 122.911L83.1783 122.912Z" fill="#00A5FD" fill-opacity="0.4"/>
<path d="M80.3093 124.899L78.6925 124.899C78.6319 124.899 78.583 124.84 78.583 124.768L78.583 118.53C78.583 118.458 78.6324 118.399 78.6925 118.399L80.3093 118.399C80.3699 118.399 80.4188 118.458 80.4188 118.53L80.4188 124.767C80.4188 124.84 80.3694 124.898 80.3093 124.898L80.3093 124.899Z" fill="#00A5FD" fill-opacity="0.4"/>
<path d="M110.89 116.724L109.273 116.724C109.212 116.724 109.163 116.775 109.163 116.839L109.163 124.783C109.163 124.847 109.212 124.899 109.273 124.899L110.89 124.899C110.951 124.899 111 124.847 111 124.783L111 116.839C111 116.775 110.951 116.724 110.89 116.724Z" fill="#00A5FD" fill-opacity="0.4"/>
<path d="M92.268 119.151C92.268 119.151 91.1061 119.098 90.563 119.956C90.5204 120.023 90.4294 120.027 90.3867 119.961C90.2087 119.686 89.7269 119.151 88.6756 119.151C88.6756 119.151 88.2791 119.151 87.945 119.373C87.8731 119.421 87.7805 119.367 87.7805 119.276L87.7805 119.267C87.7805 119.203 87.7322 119.151 87.6732 119.151L86.0924 119.151C86.0328 119.151 85.9851 119.203 85.9851 119.267L85.9851 124.782C85.9851 124.846 86.0334 124.897 86.0924 124.897L87.6732 124.897C87.7327 124.897 87.7805 124.845 87.7805 124.782L87.7805 121.706C87.7833 121.673 87.7889 121.64 87.7945 121.607C87.8243 121.423 87.9029 121.257 88.0152 121.124C88.0208 121.117 88.0264 121.111 88.0326 121.104C88.0438 121.092 88.0551 121.08 88.0669 121.069C88.0758 121.059 88.0848 121.051 88.0949 121.042C88.1078 121.03 88.1219 121.018 88.1354 121.007C88.1427 121.001 88.15 120.995 88.1573 120.989C88.3044 120.876 88.4835 120.809 88.6784 120.809C89.1737 120.796 89.5584 121.252 89.5758 121.708L89.5758 124.783C89.5758 124.847 89.6241 124.899 89.6831 124.899L91.2639 124.899C91.3234 124.899 91.3711 124.847 91.3711 124.783L91.3711 121.707C91.3711 121.707 91.3739 121.704 91.3745 121.703C91.4088 121.203 91.7957 120.809 92.2685 120.809C92.4056 120.809 92.5347 120.843 92.651 120.902C92.6622 120.907 92.6729 120.913 92.6841 120.919C92.6942 120.925 92.7037 120.931 92.7139 120.937C92.8138 120.996 92.8919 121.07 92.9525 121.15C92.9593 121.158 92.9654 121.167 92.9716 121.175C92.9784 121.185 92.9851 121.194 92.9913 121.203C93.0721 121.322 93.1283 121.46 93.1524 121.611C93.1637 121.669 93.1665 121.706 93.1665 121.706L93.1665 124.782C93.1665 124.846 93.2148 124.897 93.2737 124.897L94.854 124.897C94.9135 124.897 94.9613 124.845 94.9613 124.782L94.9613 121.571C94.9613 121.571 94.9613 121.565 94.9613 121.563C94.9545 121.451 94.7804 119.151 92.2685 119.151L92.268 119.151Z" fill="#00A5FD" fill-opacity="0.4"/>
<path d="M106.228 119.247L106.228 119.3C106.228 119.383 106.147 119.439 106.074 119.405C105.63 119.195 105.124 119.106 104.592 119.179C103.367 119.348 102.385 120.404 102.25 121.694C102.068 123.423 103.351 124.886 104.959 124.886C105.356 124.886 105.734 124.796 106.074 124.635C106.147 124.6 106.228 124.657 106.228 124.74L106.228 124.782C106.228 124.846 106.277 124.897 106.337 124.897L107.954 124.897C108.015 124.897 108.064 124.845 108.064 124.782L108.064 119.247C108.064 119.183 108.014 119.132 107.954 119.132L106.337 119.132C106.277 119.132 106.228 119.184 106.228 119.247ZM105.215 123.338C104.506 123.338 103.935 122.72 103.963 121.968C103.988 121.271 104.551 120.702 105.214 120.702C105.695 120.702 106.111 120.987 106.322 121.404C106.331 121.423 106.336 121.444 106.336 121.466L106.336 122.607C106.13 123.04 105.706 123.338 105.215 123.338Z" fill="#00A5FD" fill-opacity="0.4"/>
<path d="M99.8166 122.985C99.7734 122.985 99.7352 123.009 99.7127 123.046C99.5021 123.397 99.0916 123.635 98.6176 123.635C98.0173 123.635 97.5175 123.253 97.3985 122.744C97.3805 122.668 97.44 122.595 97.5164 122.595L101.425 122.595C101.484 122.595 101.535 122.552 101.544 122.493C101.567 122.34 101.58 122.184 101.58 122.025C101.58 120.278 100.14 118.876 98.4059 118.985C96.92 119.079 95.711 120.314 95.6189 121.83C95.511 123.6 96.8858 125.07 98.5963 125.07C99.8531 125.07 100.927 124.276 101.367 123.154C101.398 123.073 101.34 122.985 101.255 122.985L99.816 122.985L99.8166 122.985ZM97.7506 121.229C97.6905 121.229 97.6444 121.179 97.6574 121.126C97.7478 120.751 98.1431 120.467 98.6182 120.467C99.0933 120.467 99.4886 120.75 99.5791 121.126C99.592 121.179 99.5459 121.229 99.4858 121.229L97.7506 121.229Z" fill="#00A5FD" fill-opacity="0.4"/>
</g>
<path d="M163.667 94.7479L159.762 95.2084C159.762 95.2084 159.959 96.0434 157.276 98.4603C157.276 98.4603 159.459 99.4319 160.684 98.6498L163.667 94.7479Z" fill="#E0F4FF"/>
<path d="M27.0709 56.0598L25.8709 59.4351C25.8709 59.4351 24.9095 59.3316 24.2443 62.8765C24.2443 62.8765 26.5714 62.3301 27.0709 60.9686V56.0598Z" fill="#00A5FD"/>
<path d="M0.057373 60.8045L1.94696 57.3675C1.94696 57.3675 2.64976 57.8632 5.90295 56.288C5.90295 56.288 5.99135 58.6696 4.80455 59.509L0.057373 60.8045Z" fill="#E0F4FF"/>
<path d="M164.014 59.3636L167.946 59.4076C167.946 59.4076 167.838 60.2603 170.764 62.3776C170.764 62.3776 168.697 63.5761 167.396 62.9262L164.014 59.3636Z" fill="#0073C5"/>
<path d="M177.649 80.8929C179.23 83.4177 177.342 84.5392 175.373 86.0506C175.055 85.2949 174.745 84.5502 174.261 83.8738C175.678 83.0983 176.538 81.9086 177.649 80.8929Z" fill="#FFD700"/>
<path d="M154.323 35.5056C154.209 36.0564 154.317 36.5367 154.653 36.9487C156.962 38.0173 159.497 36.3715 158.702 33.6726C158.151 31.8087 155.415 30.9208 155.773 33.6902C156.469 39.0792 166.326 32.9235 160.151 28.6074" stroke="#FFD700" stroke-miterlimit="10" stroke-linecap="round" stroke-linejoin="round"/>
<path d="M12.354 88.9183L18.0537 86.0189" stroke="#FFD700" stroke-miterlimit="10" stroke-linecap="round" stroke-linejoin="round"/>
<path d="M165.039 116.775L171.592 118.41" stroke="#00A5FD" stroke-miterlimit="10" stroke-linecap="round" stroke-linejoin="round"/>
<path d="M21.6694 26.8123L26.3127 30.3529" stroke="#00A5FD" stroke-miterlimit="10" stroke-linecap="round" stroke-linejoin="round"/>
<g filter="url(#filter0_i_306_20625)">
<path fill-rule="evenodd" clip-rule="evenodd" d="M17.252 108.523L15.172 106.442L11.9364 109.679L14.0164 111.76L17.252 108.523ZM14.4296 105.946C14.7072 106.061 14.9594 106.23 15.1719 106.442L13.5541 108.061L11.9363 109.679C11.7239 109.467 11.5554 109.214 11.4404 108.937C11.3254 108.659 11.2662 108.361 11.2662 108.061C11.2662 107.76 11.3254 107.463 11.4404 107.185C11.5554 106.907 11.7239 106.655 11.9363 106.442C12.1488 106.23 12.401 106.061 12.6786 105.946C12.9562 105.831 13.2537 105.772 13.5541 105.772C13.8546 105.772 14.1521 105.831 14.4296 105.946Z" fill="#00B8E5" fill-opacity="0.08"/>
</g>
<g filter="url(#filter1_i_306_20625)">
<path fill-rule="evenodd" clip-rule="evenodd" d="M17.7142 108.986L19.7942 111.066L16.5587 114.303L14.4787 112.223L17.7142 108.986ZM20.2901 111.809C20.1751 111.531 20.0066 111.279 19.7942 111.067L18.1764 112.685L16.5586 114.304C16.7711 114.516 17.0233 114.685 17.3009 114.8C17.5784 114.915 17.8759 114.974 18.1764 114.974C18.4768 114.974 18.7743 114.915 19.0519 114.8C19.3295 114.685 19.5817 114.516 19.7942 114.304C20.0066 114.091 20.1751 113.839 20.2901 113.561C20.4051 113.283 20.4643 112.986 20.4643 112.685C20.4643 112.384 20.4051 112.087 20.2901 111.809Z" fill="white"/>
</g>
<g filter="url(#filter2_i_306_20625)">
<path fill-rule="evenodd" clip-rule="evenodd" d="M51.0001 36.9066L48.6551 38.6834L48.6552 38.6835C48.4157 38.8649 48.2143 39.0918 48.0624 39.3512C47.9106 39.6106 47.8112 39.8973 47.7701 40.1951C47.7291 40.4928 47.747 40.7958 47.8229 41.0866C47.8988 41.3774 48.0313 41.6504 48.2127 41.8901C48.3941 42.1297 48.6209 42.3312 48.8801 42.4831C49.1393 42.6351 49.426 42.7344 49.7236 42.7756C50.0212 42.8167 50.324 42.7987 50.6147 42.7228C50.9054 42.6468 51.1783 42.5143 51.4178 42.3328L51.4177 42.3327L53.7626 40.556L51.0001 36.9066Z" fill="#00B8E5" fill-opacity="0.08"/>
</g>
<g filter="url(#filter3_i_306_20625)">
<path fill-rule="evenodd" clip-rule="evenodd" d="M51.5212 36.5117L53.8661 34.735L53.8661 34.735C54.1056 34.5535 54.3785 34.421 54.6692 34.3451C54.9599 34.2691 55.2627 34.2512 55.5603 34.2923C55.858 34.3334 56.1446 34.4328 56.4038 34.5847C56.6631 34.7366 56.8898 34.9381 57.0712 35.1778C57.2526 35.4174 57.3851 35.6904 57.461 35.9812C57.5369 36.2721 57.5549 36.575 57.5138 36.8728C57.4727 37.1705 57.3734 37.4573 57.2215 37.7166C57.0696 37.976 56.8682 38.2029 56.6287 38.3844L56.6287 38.3843L54.2838 40.1611L51.5212 36.5117Z" fill="white"/>
</g>
<defs>
<filter id="filter0_i_306_20625" x="11.2662" y="105.772" width="5.98572" height="9.98831" filterUnits="userSpaceOnUse" color-interpolation-filters="sRGB">
<feFlood flood-opacity="0" result="BackgroundImageFix"/>
<feBlend mode="normal" in="SourceGraphic" in2="BackgroundImageFix" result="shape"/>
<feColorMatrix in="SourceAlpha" type="matrix" values="0 0 0 0 0 0 0 0 0 0 0 0 0 0 0 0 0 0 127 0" result="hardAlpha"/>
<feOffset dy="4"/>
<feGaussianBlur stdDeviation="2"/>
<feComposite in2="hardAlpha" operator="arithmetic" k2="-1" k3="1"/>
<feColorMatrix type="matrix" values="0 0 0 0 0.211765 0 0 0 0 0.486275 0 0 0 0 1 0 0 0 0.2 0"/>
<feBlend mode="normal" in2="shape" result="effect1_innerShadow_306_20625"/>
</filter>
<filter id="filter1_i_306_20625" x="14.4786" y="108.986" width="6.9856" height="9.98846" filterUnits="userSpaceOnUse" color-interpolation-filters="sRGB">
<feFlood flood-opacity="0" result="BackgroundImageFix"/>
<feBlend mode="normal" in="SourceGraphic" in2="BackgroundImageFix" result="shape"/>
<feColorMatrix in="SourceAlpha" type="matrix" values="0 0 0 0 0 0 0 0 0 0 0 0 0 0 0 0 0 0 127 0" result="hardAlpha"/>
<feOffset dx="1" dy="4"/>
<feGaussianBlur stdDeviation="2"/>
<feComposite in2="hardAlpha" operator="arithmetic" k2="-1" k3="1"/>
<feColorMatrix type="matrix" values="0 0 0 0 0 0 0 0 0 0 0 0 0 0 0 0 0 0 0.08 0"/>
<feBlend mode="normal" in2="shape" result="effect1_innerShadow_306_20625"/>
</filter>
<filter id="filter2_i_306_20625" x="47.7487" y="36.9066" width="6.01404" height="9.89044" filterUnits="userSpaceOnUse" color-interpolation-filters="sRGB">
<feFlood flood-opacity="0" result="BackgroundImageFix"/>
<feBlend mode="normal" in="SourceGraphic" in2="BackgroundImageFix" result="shape"/>
<feColorMatrix in="SourceAlpha" type="matrix" values="0 0 0 0 0 0 0 0 0 0 0 0 0 0 0 0 0 0 127 0" result="hardAlpha"/>
<feOffset dy="4"/>
<feGaussianBlur stdDeviation="2"/>
<feComposite in2="hardAlpha" operator="arithmetic" k2="-1" k3="1"/>
<feColorMatrix type="matrix" values="0 0 0 0 0.211765 0 0 0 0 0.486275 0 0 0 0 1 0 0 0 0.2 0"/>
<feBlend mode="normal" in2="shape" result="effect1_innerShadow_306_20625"/>
</filter>
<filter id="filter3_i_306_20625" x="51.5211" y="34.2708" width="7.01416" height="9.89032" filterUnits="userSpaceOnUse" color-interpolation-filters="sRGB">
<feFlood flood-opacity="0" result="BackgroundImageFix"/>
<feBlend mode="normal" in="SourceGraphic" in2="BackgroundImageFix" result="shape"/>
<feColorMatrix in="SourceAlpha" type="matrix" values="0 0 0 0 0 0 0 0 0 0 0 0 0 0 0 0 0 0 127 0" result="hardAlpha"/>
<feOffset dx="1" dy="4"/>
<feGaussianBlur stdDeviation="2"/>
<feComposite in2="hardAlpha" operator="arithmetic" k2="-1" k3="1"/>
<feColorMatrix type="matrix" values="0 0 0 0 0 0 0 0 0 0 0 0 0 0 0 0 0 0 0.08 0"/>
<feBlend mode="normal" in2="shape" result="effect1_innerShadow_306_20625"/>
</filter>
<linearGradient id="paint0_linear_306_20625" x1="74.9315" y1="-8.51391" x2="138.012" y2="144.425" gradientUnits="userSpaceOnUse">
<stop offset="0.1076" stop-color="white"/>
<stop offset="0.544792" stop-color="#CFEFFF" stop-opacity="0.26"/>
<stop offset="0.940625" stop-color="white"/>
</linearGradient>
<linearGradient id="paint1_linear_306_20625" x1="55.9586" y1="81.684" x2="138.703" y2="58.6457" gradientUnits="userSpaceOnUse">
<stop stop-color="#FEE500"/>
<stop offset="0.0001" stop-color="#A2C2FF"/>
<stop offset="1" stop-color="#72C5FF"/>
</linearGradient>
<linearGradient id="paint2_linear_306_20625" x1="52.1954" y1="38.6612" x2="122.907" y2="133.77" gradientUnits="userSpaceOnUse">
<stop offset="0.1076" stop-color="white"/>
<stop offset="0.544792" stop-color="#CFEFFF" stop-opacity="0.26"/>
<stop offset="0.940625" stop-color="white"/>
</linearGradient>
<linearGradient id="paint3_linear_306_20625" x1="114.365" y1="38.6612" x2="185.076" y2="133.77" gradientUnits="userSpaceOnUse">
<stop offset="0.1076" stop-color="white"/>
<stop offset="0.544792" stop-color="#CFEFFF" stop-opacity="0.26"/>
<stop offset="0.940625" stop-color="white"/>
</linearGradient>
<linearGradient id="paint4_linear_306_20625" x1="75.4782" y1="72.3985" x2="96.58" y2="163.971" gradientUnits="userSpaceOnUse">
<stop offset="0.1076" stop-color="white"/>
<stop offset="0.544792" stop-color="#CFEFFF" stop-opacity="0.26"/>
<stop offset="0.940625" stop-color="white"/>
</linearGradient>
<clipPath id="clip0_306_20625">
<rect width="40.5522" height="9.32005" fill="white" transform="translate(70.4475 115.75)"/>
</clipPath>
</defs>
</svg>
